<?xml version="1.0" encoding="utf-8"?>
<!-- Generator: Adobe Illustrator 27.5.0, SVG Export Plug-In . SVG Version: 6.00 Build 0)  -->
<svg version="1.1" xmlns="http://www.w3.org/2000/svg" xmlns:xlink="http://www.w3.org/1999/xlink" x="0px" y="0px"
	 viewBox="0 0 500 500" style="enable-background:new 0 0 500 500;" xml:space="preserve">
<g id="Background_Complete">
	<g>
		<g>
			<g>
				<g>
					<g>
						<g>
							<path style="fill:#E0E0E0;" d="M332.181,92.079h65.751c0,0-5.814-10.581-22.739-9.041
								c-16.164,1.471-16.986-5.205-25.204-6.027C341.77,76.189,334.921,82.49,332.181,92.079z"/>
						</g>
					</g>
				</g>
			</g>
		</g>
	</g>
	<g>
		<g>
			<g>
				<path style="fill:#EBEBEB;" d="M160.321,265.898c0,0-6.587,3.563,3.003,17.32c9.59,13.757,15.83,20.363,15.83,20.363
					s1.813,3.251-1.005,4.183c-2.818,0.932-9.326,0.794-10.126,4.511c-0.83,3.854,2.313,6.949,8.136,9.241
					c5.824,2.292,18.399,7.782,19.534,8.283c1.115,0.492,2.365,1.948,0.547,2.891s-15.934,4.412-13.888,11.012
					c2.047,6.6,19.32,10.319,21.201,10.762c1.88,0.443,2.412,1.141,2.401,2.141c-0.01,1-4.865,1.719-8.84,2.87
					c-3.975,1.151-8.382,3.183-6.881,6.892c1.5,3.709,12.356,10.439,36.333,9.497l11.082-1.164l4.719-10.148
					c8.776-22.334,5.99-34.799,2.981-37.435c-3.009-2.637-6.377,0.857-8.771,4.232c-2.394,3.375-4.67,7.723-5.618,7.404
					c-0.948-0.319-1.432-1.05-1.232-2.972c0.2-1.922,2.368-19.457-3.191-23.561c-5.56-4.104-13.478,8.087-14.967,9.493
					c-1.488,1.407-2.453-0.253-2.55-1.467c-0.1-1.237-1.148-14.918-1.398-21.171c-0.249-6.254-2.138-10.24-6.051-10.723
					c-3.773-0.466-5.783,5.725-7.59,8.08c-1.807,2.355-4.281-0.426-4.281-0.426s-4.185-8.065-14.024-21.646
					c-9.838-13.581-15.483-8.378-15.483-8.378"/>
			</g>
			<g>
				<g>
					<path style="fill:#E0E0E0;" d="M238.577,377.215c-7.186-10.002-19.659-27.994-30.449-43.386
						c-10.786-15.386-20.563-29.308-27.698-39.345c-3.566-5.007-6.455-9.062-8.462-11.879c-0.992-1.394-1.764-2.481-2.299-3.232
						c-0.253-0.363-0.45-0.644-0.591-0.846c-0.131-0.192-0.192-0.295-0.192-0.295s0.079,0.09,0.22,0.274
						c0.148,0.197,0.353,0.471,0.619,0.825c0.546,0.742,1.337,1.816,2.351,3.194c2.039,2.776,4.96,6.813,8.552,11.815
						c7.186,10.002,16.997,23.903,27.782,39.289c10.789,15.392,23.23,33.405,30.364,43.442"/>
				</g>
			</g>
			<g>
				<g>
					<path style="fill:#E0E0E0;" d="M177.118,312.834c0.005-0.023,0.289,0.017,0.799,0.108c0.51,0.09,1.244,0.241,2.149,0.436
						c1.809,0.395,4.294,1.003,7.023,1.724c2.689,0.721,5.121,1.372,6.981,1.871c0.84,0.219,1.548,0.405,2.118,0.553
						c0.501,0.128,0.776,0.211,0.771,0.234c-0.005,0.023-0.289-0.014-0.8-0.102c-0.51-0.091-1.245-0.243-2.148-0.448
						c-1.806-0.412-4.282-1.053-7.011-1.774c-2.693-0.701-5.129-1.335-6.992-1.82c-0.841-0.215-1.551-0.397-2.122-0.543
						C177.388,312.942,177.113,312.857,177.118,312.834z"/>
				</g>
			</g>
			<g>
				<g>
					<path style="fill:#E0E0E0;" d="M197.617,316.951c-0.094-0.02,0.935-5.198,2.297-11.564c1.362-6.368,2.542-11.512,2.636-11.492
						c0.093,0.02-0.935,5.197-2.297,11.565C198.891,311.826,197.711,316.971,197.617,316.951z"/>
				</g>
			</g>
			<g>
				<g>
					<path style="fill:#E0E0E0;" d="M213.117,341.33c-0.021-0.012,0.107-0.276,0.354-0.743c0.284-0.528,0.639-1.186,1.061-1.969
						c0.893-1.663,2.116-3.965,3.373-6.554c1.263-2.587,2.325-4.968,3.079-6.698c0.356-0.814,0.656-1.5,0.896-2.049
						c0.214-0.483,0.343-0.746,0.366-0.737c0.022,0.009-0.064,0.288-0.24,0.787c-0.176,0.499-0.444,1.215-0.795,2.093
						c-0.698,1.757-1.727,4.161-2.994,6.756c-1.26,2.597-2.521,4.887-3.471,6.522c-0.478,0.816-0.872,1.471-1.158,1.917
						C213.304,341.102,213.138,341.342,213.117,341.33z"/>
				</g>
			</g>
			<g>
				<g>
					<path style="fill:#E0E0E0;" d="M193.756,341.687c-0.001-0.024,0.268-0.055,0.755-0.091c0.561-0.033,1.251-0.072,2.064-0.119
						c1.743-0.086,4.152-0.18,6.814-0.264c2.662-0.083,5.073-0.139,6.818-0.162c0.815-0.004,1.505-0.007,2.067-0.01
						c0.488,0.006,0.759,0.02,0.76,0.044c0.001,0.024-0.268,0.055-0.755,0.091c-0.561,0.032-1.251,0.072-2.064,0.119
						c-1.744,0.086-4.153,0.18-6.815,0.264c-2.661,0.083-5.072,0.139-6.817,0.162c-0.814,0.004-1.505,0.007-2.067,0.009
						C194.027,341.725,193.757,341.711,193.756,341.687z"/>
				</g>
			</g>
			<g>
				<g>
					<path style="fill:#E0E0E0;" d="M204.706,364.948c-0.001-0.024,0.344-0.061,0.968-0.107c0.689-0.042,1.578-0.097,2.645-0.163
						c2.234-0.122,5.32-0.268,8.731-0.407c3.411-0.139,6.5-0.246,8.736-0.306c1.069-0.021,1.959-0.039,2.649-0.053
						c0.626-0.005,0.972,0.004,0.973,0.028c0.001,0.024-0.344,0.061-0.968,0.107c-0.689,0.042-1.578,0.097-2.645,0.163
						c-2.234,0.122-5.321,0.268-8.732,0.407c-3.41,0.139-6.498,0.246-8.735,0.306c-1.069,0.021-1.959,0.039-2.649,0.053
						C205.053,364.98,204.706,364.972,204.706,364.948z"/>
				</g>
			</g>
			<g>
				<g>
					<path style="fill:#E0E0E0;" d="M228.81,363.798c-0.021-0.011,0.131-0.35,0.425-0.952c0.324-0.656,0.746-1.513,1.255-2.544
						c1.057-2.149,2.505-5.123,4.011-8.451c1.512-3.327,2.8-6.374,3.718-8.586c0.442-1.063,0.808-1.944,1.089-2.62
						c0.26-0.618,0.414-0.955,0.436-0.947c0.022,0.009-0.089,0.362-0.31,0.996c-0.221,0.633-0.555,1.544-0.987,2.662
						c-0.86,2.238-2.116,5.305-3.63,8.638c-1.509,3.334-2.994,6.296-4.108,8.419c-0.56,1.06-1.021,1.914-1.354,2.496
						C229.023,363.492,228.831,363.809,228.81,363.798z"/>
				</g>
			</g>
		</g>
		<g>
			<g>
				<g>
					<g>
						<g>
							<path style="fill:#F5F5F5;" d="M321.804,216.22c-11.906-13.347-10.76-32.615-6.256-49.112
								c0.751-2.754,1.14-5.753,3.037-7.876c1.898-2.122,5.373-3.057,7.582-1.299c1.832,1.459,2.162,4.07,2.846,6.326
								c0.909,3.002,2.678,5.727,5.038,7.761c1.55,1.336,3.605,2.415,5.578,1.866c2.707-0.754,3.773-3.995,4.41-6.761
								c1.186-5.154,2.374-10.308,3.56-15.46c0.637-2.765,1.296-5.586,2.776-8.003c1.479-2.417,3.954-4.402,6.754-4.516
								c2.801-0.113,5.69,2.17,5.605,5.004c-0.036,1.179-0.541,2.293-0.736,3.456c-0.195,1.165,0.039,2.559,1.052,3.136
								c1.025,0.585,2.315,0.064,3.332-0.549c3.51-2.113,6.295-5.246,8.948-8.389c2.653-3.143,5.273-6.384,8.58-8.812
								c3.306-2.428,7.453-3.99,11.461-3.278c4.008,0.713,7.642,4.151,7.722,8.27c0.08,4.13-3.126,7.541-6.344,10.107
								c-4.773,3.807-10.09,6.913-15.729,9.192c-1.017,0.412-2.118,0.855-2.693,1.799c-1.036,1.699,0.275,3.94,1.949,4.976
								c1.896,1.173,4.18,1.488,6.272,2.252c2.093,0.763,4.2,2.266,4.533,4.493c0.462,3.09-2.598,5.489-5.38,6.876
								c-5.569,2.778-11.605,4.585-17.762,5.319c-2.207,0.262-4.499,0.408-6.475,1.447c-1.976,1.04-3.552,3.287-3.023,5.466
								c0.529,2.182,2.921,3.406,5.142,3.514c2.22,0.11,4.398-0.594,6.607-0.879c4.134-0.533,8.971,0.889,10.625,4.744
								c1.087,2.534,0.516,5.569-0.9,7.947c-1.416,2.378-3.579,4.203-5.802,5.832c-7.771,5.694-16.917,9.594-26.442,10.561
								C338.145,222.597,329.794,221.491,321.804,216.22"/>
						</g>
					</g>
				</g>
			</g>
			<g>
				<g>
					<g>
						<g>
							<g>
								<path style="fill:#E0E0E0;" d="M324.216,217.824c2.163-6.446-0.099-3.21,4.351-11.013
									c4.436-7.813,10.008-15.974,16.13-24.31c1.538-2.078,3.058-4.131,4.555-6.155c1.5-2.016,2.987-4.017,4.563-5.883
									c3.135-3.747,6.435-7.111,9.668-10.206c3.232-3.098,6.412-5.919,9.404-8.535c3-2.611,5.841-4.992,8.524-7.052
									c5.355-4.14,10.06-6.963,13.369-8.768c1.654-0.908,2.959-1.571,3.85-2.008c0.428-0.206,0.764-0.369,1.016-0.491
									c0.23-0.107,0.35-0.158,0.354-0.151c0.005,0.008-0.107,0.076-0.33,0.199c-0.247,0.134-0.576,0.311-0.993,0.537
									c-0.875,0.467-2.164,1.158-3.801,2.092c-3.274,1.859-7.932,4.719-13.242,8.885c-2.661,2.073-5.482,4.464-8.464,7.086
									c-2.978,2.629-6.143,5.458-9.358,8.557c-3.215,3.097-6.495,6.456-9.607,10.187c-1.564,1.858-3.036,3.842-4.538,5.865
									c-1.496,2.023-3.014,4.076-4.551,6.153c-6.116,8.329-11.687,16.462-16.133,24.239c-4.459,7.766-2.218,4.484-4.418,10.892"/>
							</g>
						</g>
					</g>
				</g>
			</g>
			<g>
				<g>
					<g>
						<g>
							<g>
								<path style="fill:#E0E0E0;" d="M353.965,170.477c-0.036-0.003-0.03-0.444,0.009-1.242c0.036-0.798,0.125-1.949,0.257-3.37
									c0.261-2.842,0.755-6.753,1.316-11.064c0.562-4.313,0.999-8.221,1.215-11.058c0.112-1.418,0.192-2.568,0.236-3.362
									c0.049-0.795,0.094-1.235,0.13-1.235c0.036,0,0.06,0.441,0.073,1.239c0.018,0.798-0.006,1.954-0.072,3.38
									c-0.123,2.854-0.503,6.784-1.066,11.101c-0.564,4.252-1.076,8.099-1.466,11.039c-0.168,1.329-0.309,2.449-0.422,3.348
									C354.074,170.043,354.001,170.48,353.965,170.477z"/>
							</g>
						</g>
					</g>
				</g>
			</g>
			<g>
				<g>
					<g>
						<g>
							<g>
								<path style="fill:#E0E0E0;" d="M391.034,172.251c-0.007,0.036-0.526-0.025-1.456-0.166c-0.93-0.135-2.275-0.337-3.944-0.533
									c-3.334-0.42-7.961-0.837-13.085-1.075c-5.126-0.228-9.774-0.238-13.136-0.147c-1.682,0.033-3.042,0.097-3.983,0.135
									c-0.941,0.042-1.462,0.048-1.466,0.012c-0.003-0.037,0.514-0.111,1.453-0.217c0.938-0.1,2.299-0.221,3.984-0.303
									c3.368-0.186,8.033-0.236,13.175-0.007c5.139,0.239,9.778,0.717,13.11,1.233c1.668,0.244,3.008,0.503,3.929,0.701
									C390.536,172.087,391.041,172.215,391.034,172.251z"/>
							</g>
						</g>
					</g>
				</g>
			</g>
			<g>
				<g>
					<g>
						<g>
							<g>
								<path style="fill:#E0E0E0;" d="M329.158,206.261c-0.018,0.003-0.066-0.165-0.141-0.49c-0.082-0.386-0.182-0.858-0.303-1.428
									c-0.258-1.241-0.583-3.047-0.956-5.283c-0.749-4.472-1.59-10.683-2.425-17.548c-0.836-6.868-1.618-13.078-2.273-17.559
									c-0.325-2.18-0.592-3.973-0.791-5.306c-0.083-0.578-0.151-1.054-0.207-1.445c-0.042-0.331-0.055-0.507-0.037-0.511
									c0.018-0.002,0.065,0.166,0.141,0.492c0.082,0.386,0.182,0.856,0.303,1.427c0.257,1.241,0.583,3.047,0.956,5.283
									c0.749,4.472,1.59,10.683,2.425,17.551c0.836,6.866,1.618,13.075,2.272,17.557c0.326,2.179,0.592,3.973,0.791,5.305
									c0.083,0.578,0.151,1.055,0.207,1.446C329.162,206.082,329.176,206.258,329.158,206.261z"/>
							</g>
						</g>
					</g>
				</g>
			</g>
			<g>
				<g>
					<g>
						<g>
							<g>
								<path style="fill:#E0E0E0;" d="M379.93,202.232c0.001,0.018-0.177,0.046-0.514,0.082c-0.398,0.036-0.887,0.081-1.479,0.135
									c-1.363,0.111-3.202,0.26-5.439,0.44c-4.593,0.373-10.93,0.961-17.931,1.62c-7.004,0.66-13.353,1.19-17.954,1.468
									c-2.301,0.14-4.164,0.234-5.452,0.273c-0.595,0.014-1.085,0.026-1.484,0.036c-0.34,0.003-0.519-0.006-0.519-0.024
									c-0.001-0.018,0.177-0.046,0.514-0.083c0.397-0.036,0.886-0.08,1.478-0.134c1.363-0.111,3.201-0.259,5.438-0.44
									c4.593-0.372,10.931-0.961,17.935-1.62c7.002-0.66,13.35-1.19,17.952-1.467c2.301-0.14,4.163-0.234,5.453-0.273
									c0.595-0.014,1.085-0.027,1.484-0.036C379.751,202.205,379.929,202.213,379.93,202.232z"/>
							</g>
						</g>
					</g>
				</g>
			</g>
		</g>
		<g>
			<g>
				<g>
					<g>
						<g>
							<g>
								<path style="fill:#E0E0E0;" d="M419.314,304.002c0.011,0.005-0.046,0.164-0.167,0.467c-0.137,0.333-0.318,0.775-0.547,1.333
									c-0.508,1.197-1.227,2.89-2.134,5.026c-1.879,4.349-4.535,10.492-7.705,17.827l-0.047,0.108l-0.118,0.019
									c-7.108,1.174-15.399,2.544-24.219,4.001c-2.764,0.452-5.476,0.895-8.119,1.328l-0.369,0.06l0.092-0.362
									c1.974-7.79,3.791-14.962,5.335-21.055l0.114,0.233c-5.913-2.643-10.793-4.824-14.232-6.361
									c-1.67-0.761-2.989-1.362-3.927-1.789c-0.425-0.201-0.763-0.36-1.023-0.483c-0.23-0.112-0.346-0.174-0.342-0.184
									c0.004-0.009,0.129,0.034,0.366,0.128c0.266,0.109,0.612,0.251,1.047,0.429c0.948,0.403,2.282,0.97,3.971,1.689
									c3.456,1.499,8.36,3.626,14.302,6.203l0.156,0.067l-0.041,0.166c-1.519,6.098-3.308,13.278-5.25,21.076l-0.277-0.302
									c2.643-0.434,5.355-0.88,8.118-1.334c8.823-1.435,17.118-2.784,24.229-3.94l-0.164,0.128
									c3.238-7.305,5.95-13.424,7.869-17.755c0.954-2.116,1.711-3.793,2.245-4.978c0.255-0.547,0.456-0.981,0.608-1.306
									C419.225,304.147,419.303,303.997,419.314,304.002z"/>
							</g>
						</g>
					</g>
				</g>
			</g>
			<g>
				<g>
					<g>
						<g>
							<polygon style="fill:#E0E0E0;" points="379.096,331.252 378.434,332.995 379.494,334.528 377.632,334.437 376.502,335.919 
								376.013,334.12 374.254,333.503 375.814,332.482 375.857,330.618 377.31,331.786 							"/>
						</g>
					</g>
				</g>
			</g>
			<g>
				<g>
					<g>
						<g>
							<polygon style="fill:#E0E0E0;" points="362.466,302.999 362.137,303.866 362.664,304.628 361.738,304.583 361.176,305.32 
								360.932,304.426 360.057,304.118 360.833,303.611 360.855,302.684 361.578,303.265 							"/>
						</g>
					</g>
				</g>
			</g>
			<g>
				<g>
					<g>
						<g>
							<polygon style="fill:#E0E0E0;" points="409.437,327.565 409.107,328.432 409.635,329.195 408.708,329.15 408.146,329.887 
								407.903,328.992 407.028,328.685 407.804,328.177 407.825,327.25 408.548,327.831 							"/>
						</g>
					</g>
				</g>
			</g>
			<g>
				<g>
					<g>
						<g>
							<polygon style="fill:#E0E0E0;" points="382.332,311.968 382.003,312.835 382.53,313.598 381.604,313.552 381.041,314.29 
								380.798,313.395 379.923,313.088 380.699,312.58 380.721,311.653 381.443,312.234 							"/>
						</g>
					</g>
				</g>
			</g>
			<g>
				<g>
					<g>
						<g>
							<polygon style="fill:#E0E0E0;" points="420.44,303.135 420.111,304.002 420.639,304.765 419.712,304.72 419.15,305.457 
								418.907,304.562 418.032,304.255 418.808,303.747 418.829,302.82 419.552,303.401 							"/>
						</g>
					</g>
				</g>
			</g>
		</g>
		<g>
			<g>
				<g>
					<g>
						<g>
							<g>
								<path style="fill:#E0E0E0;" d="M117.345,375.906h52.35c0,0-4.629-8.424-18.105-7.198
									c-12.87,1.171-13.524-4.144-20.068-4.799C124.979,363.255,119.526,368.272,117.345,375.906z"/>
							</g>
						</g>
					</g>
				</g>
			</g>
		</g>
		<g>
			<g>
				<g>
					<g>
						<g>
							<g>
								<path style="fill:#F5F5F5;" d="M127.739,169.793h52.35c0,0-4.629-8.424-18.104-7.198
									c-12.87,1.171-13.524-4.144-20.068-4.799C135.373,157.141,129.92,162.158,127.739,169.793z"/>
							</g>
						</g>
					</g>
				</g>
			</g>
		</g>
		<g>
			<g>
				<g>
					<g>
						<g>
							<g>
								<path style="fill:#F5F5F5;" d="M393.619,206.198h43.012c0,0-3.803-6.922-14.875-5.914
									c-10.574,0.962-11.111-3.405-16.488-3.943C399.891,195.803,395.411,199.925,393.619,206.198z"/>
							</g>
						</g>
					</g>
				</g>
			</g>
		</g>
	</g>
</g>
<g id="Background_Simple" style="display:none;">
	<path style="display:inline;fill:#EBEBEB;" d="M418.487,123.271L418.487,123.271c-14.272-23.224-38.062-39.242-65.078-42.87
		c-10.498-1.41-21.214-1.102-31.589,1.091c-30.953,6.543-57.886,29.656-69.049,59.258c-6.565,17.409-8.4,37.454-20.859,51.273
		c-16.215,17.984-43.744,18.549-67.948,17.804c-24.204-0.745-51.751-0.11-67.887,17.945c-10.106,11.308-13.318,27.388-12.503,42.531
		c2.158,40.092,30.449,75.941,66.429,93.76c35.98,17.819,78.342,19.415,117.72,11.576c55.164-10.981,107.624-41.136,139.157-87.712
		c30.043-44.376,38.707-104.073,17.638-153.092C422.8,130.837,420.766,126.98,418.487,123.271z"/>
</g>
<g id="Pencil">
	<g>
		<g>
			<path style="fill:#E8505B;" d="M307.732,291.095c2.135-16.118-9.196-29.415-23.356-37.406
				c-14.16-7.991-30.586-10.665-46.225-15.109c-14.75-4.191-29.42-10.305-40.345-21.065c-10.925-10.76-17.479-26.935-13.551-41.757
				c0.986-3.722,2.748-7.46,5.944-9.607c3.196-2.147,8.075-2.092,10.459,0.931c5.077,6.439-4.816,17.971,1.379,23.342
				c1.422,1.233,3.378,1.687,4.85,2.86c3.917,3.124,2.649,9.197,3.202,14.177c1.094,9.849,10.329,16.688,19.399,20.678
				c12.148,5.345,25.309,7.857,38.197,11.025c12.888,3.168,25.883,7.159,36.62,14.96c10.737,7.801,20.052,20.013,19.978,33.284
				c-0.021,3.709-0.493,8.269-2.82,11.156c-2.327,2.887-5.292,3.487-8.648,1.908C309.458,298.892,307.11,296.45,307.732,291.095"/>
			<g style="opacity:0.8;">
				<path style="fill:#FFFFFF;" d="M307.732,291.095c2.135-16.118-9.196-29.415-23.356-37.406
					c-14.16-7.991-30.586-10.665-46.225-15.109c-14.75-4.191-29.42-10.305-40.345-21.065c-10.925-10.76-17.479-26.935-13.551-41.757
					c0.986-3.722,2.748-7.46,5.944-9.607c3.196-2.147,8.075-2.092,10.459,0.931c5.077,6.439-4.816,17.971,1.379,23.342
					c1.422,1.233,3.378,1.687,4.85,2.86c3.917,3.124,2.649,9.197,3.202,14.177c1.094,9.849,10.329,16.688,19.399,20.678
					c12.148,5.345,25.309,7.857,38.197,11.025c12.888,3.168,25.883,7.159,36.62,14.96c10.737,7.801,20.052,20.013,19.978,33.284
					c-0.021,3.709-0.493,8.269-2.82,11.156c-2.327,2.887-5.292,3.487-8.648,1.908C309.458,298.892,307.11,296.45,307.732,291.095"/>
			</g>
		</g>
		<g>
			<path style="fill:#E8505B;" d="M239.229,162.972c-0.51-5.97,3.937-11.168,8.995-13.955c5.058-2.787,10.851-3.919,16.066-6.391
				c12.947-6.138,21.18-20.583,21.788-35.4c0.608-14.817-5.814-29.625-15.863-40.508c-4.083-4.422-9.106-9.055-9.166-15.088
				c-0.063-6.295,6.043-11.256,12.142-11.176c6.099,0.08,11.719,4.162,15.37,9.298s5.671,11.256,7.637,17.265
				c-1.401-2.512,1.476-5.624,4.248-5.356c2.772,0.268,4.96,2.58,6.671,4.883c7.347,9.892,10.984,22.6,9.97,34.843
				c-1.014,12.243-6.667,23.894-15.499,31.945c-9.865,8.992-22.921,13.211-35.574,17.204c-8.805,2.778-17.61,5.557-26.416,8.335"/>
			<g style="opacity:0.8;">
				<path style="fill:#FFFFFF;" d="M239.229,162.972c-0.51-5.97,3.937-11.168,8.995-13.955c5.058-2.787,10.851-3.919,16.066-6.391
					c12.947-6.138,21.18-20.583,21.788-35.4c0.608-14.817-5.814-29.625-15.863-40.508c-4.083-4.422-9.106-9.055-9.166-15.088
					c-0.063-6.295,6.043-11.256,12.142-11.176c6.099,0.08,11.719,4.162,15.37,9.298s5.671,11.256,7.637,17.265
					c-1.401-2.512,1.476-5.624,4.248-5.356c2.772,0.268,4.96,2.58,6.671,4.883c7.347,9.892,10.984,22.6,9.97,34.843
					c-1.014,12.243-6.667,23.894-15.499,31.945c-9.865,8.992-22.921,13.211-35.574,17.204c-8.805,2.778-17.61,5.557-26.416,8.335"/>
			</g>
		</g>
		<g>
			<path style="fill:#E8505B;" d="M231.881,37.523c-2.624,1.104-4.064,4.428-3.075,7.098c0.99,2.67,4.248,4.252,6.958,3.379
				c2.71-0.873,4.432-4.06,3.678-6.805c-0.755-2.746-3.864-4.604-6.64-3.969"/>
			<g style="opacity:0.8;">
				<path style="fill:#FFFFFF;" d="M231.881,37.523c-2.624,1.104-4.064,4.428-3.075,7.098c0.99,2.67,4.248,4.252,6.958,3.379
					c2.71-0.873,4.432-4.06,3.678-6.805c-0.755-2.746-3.864-4.604-6.64-3.969"/>
			</g>
		</g>
	</g>
	<g>
		<path style="fill:#E8505B;" d="M264.452,422.841c-3.238-6.714-0.415-15.081,4.743-20.461c5.158-5.38,12.204-8.45,19.025-11.455
			c15.054-6.631,30.993-14.534,38.648-29.094c2.582-4.91,4.053-10.314,5.505-15.668c2.811-10.364,5.444-22.133-0.206-31.264
			c-1.625-2.626-4.07-4.963-7.111-5.502c-3.462-0.615-7.023,1.292-9.157,4.087c-2.134,2.795-3.049,6.335-3.49,9.824
			c-0.84,6.637-0.144,13.388-0.842,20.041c-0.698,6.653-3.132,13.61-8.62,17.436c-6.664,4.646-16.175,3.603-22.648,8.513
			c-5.227,3.964-7.215,10.838-11.303,15.969c-3.436,4.312-8.243,7.259-12.647,10.575c-4.404,3.316-8.663,7.363-10.16,12.669
			c-1.554,5.512,0.389,11.851,4.766,15.544c4.377,3.693,10.952,4.542,16.124,2.082"/>
		<g style="opacity:0.8;">
			<path style="fill:#FFFFFF;" d="M264.452,422.841c-3.238-6.714-0.415-15.081,4.743-20.461c5.158-5.38,12.204-8.45,19.025-11.455
				c15.054-6.631,30.993-14.534,38.648-29.094c2.582-4.91,4.053-10.314,5.505-15.668c2.811-10.364,5.444-22.133-0.206-31.264
				c-1.625-2.626-4.07-4.963-7.111-5.502c-3.462-0.615-7.023,1.292-9.157,4.087c-2.134,2.795-3.049,6.335-3.49,9.824
				c-0.84,6.637-0.144,13.388-0.842,20.041c-0.698,6.653-3.132,13.61-8.62,17.436c-6.664,4.646-16.175,3.603-22.648,8.513
				c-5.227,3.964-7.215,10.838-11.303,15.969c-3.436,4.312-8.243,7.259-12.647,10.575c-4.404,3.316-8.663,7.363-10.16,12.669
				c-1.554,5.512,0.389,11.851,4.766,15.544c4.377,3.693,10.952,4.542,16.124,2.082"/>
		</g>
	</g>
	<g>
		<g>
			<path style="fill:#E8505B;" d="M164.326,83.856c-5.302-3.933-8.537-10.507-8.42-17.107c0.118-6.6,3.586-13.055,9.025-16.796
				c3.075-2.115,6.721-3.409,9.455-5.95c2.431-2.259,4.012-5.393,6.732-7.293c3.38-2.36,8.283-2.256,11.56,0.245
				c3.276,2.502,4.669,7.205,3.282,11.087c-1.254,3.51-4.404,6.074-5.721,9.56c-1.417,3.753-0.504,7.957-1.031,11.934
				c-0.647,4.887-3.615,9.415-7.839,11.957c-4.224,2.542-9.615,3.045-14.236,1.328"/>
			<g style="opacity:0.8;">
				<path style="fill:#FFFFFF;" d="M164.326,83.856c-5.302-3.933-8.537-10.507-8.42-17.107c0.118-6.6,3.586-13.055,9.025-16.796
					c3.075-2.115,6.721-3.409,9.455-5.95c2.431-2.259,4.012-5.393,6.732-7.293c3.38-2.36,8.283-2.256,11.56,0.245
					c3.276,2.502,4.669,7.205,3.282,11.087c-1.254,3.51-4.404,6.074-5.721,9.56c-1.417,3.753-0.504,7.957-1.031,11.934
					c-0.647,4.887-3.615,9.415-7.839,11.957c-4.224,2.542-9.615,3.045-14.236,1.328"/>
			</g>
		</g>
		<g>
			<path style="fill:#E8505B;" d="M171.587,93.165h-1.464c-2.99,0-5.413-2.424-5.413-5.413V62.417H177v25.335
				C177,90.741,174.577,93.165,171.587,93.165z"/>
			<polygon style="fill:#FFBE9D;" points="164.71,62.417 170.855,51.146 177,62.417 			"/>
			<path style="fill:#E8505B;" d="M168.421,55.61c0,0,1.866,2.806,4.868,0l-2.434-4.464L168.421,55.61z"/>
			<line style="opacity:0.3;fill:#FFFFFF;" x1="166.53" y1="62.417" x2="169.169" y2="62.417"/>
		</g>
		<g>
			<path style="fill:#263238;" d="M177.17,86.518c0,0.137-2.797,0.248-6.247,0.248c-3.451,0-6.247-0.111-6.247-0.248
				c0-0.137,2.797-0.248,6.247-0.248C174.373,86.27,177.17,86.381,177.17,86.518z"/>
		</g>
		<g>
			<path style="fill:#263238;" d="M177.044,84.634c0,0.137-2.741,0.248-6.121,0.248c-3.382,0-6.122-0.111-6.122-0.248
				c0-0.137,2.74-0.248,6.122-0.248C174.304,84.386,177.044,84.497,177.044,84.634z"/>
		</g>
		<g>
			<path style="fill:#FAFAFA;" d="M168.317,62.597c0.137,0,0.248,4.906,0.248,10.955c0,6.052-0.111,10.956-0.248,10.956
				c-0.137,0-0.248-4.904-0.248-10.956C168.069,67.502,168.18,62.597,168.317,62.597z"/>
		</g>
		<g>
			<path style="fill:#FAFAFA;" d="M173.289,62.597c0.137,0,0.248,4.906,0.248,10.955c0,6.052-0.111,10.956-0.248,10.956
				c-0.137,0-0.248-4.904-0.248-10.956C173.041,67.502,173.152,62.597,173.289,62.597z"/>
		</g>
	</g>
</g>
<g id="Notebook">
	<g>
		<polygon style="fill:#263238;" points="271.485,408.718 327.319,411.106 328.668,414.359 292.074,473.758 226.012,471.832 		"/>
		<polygon style="fill:#E0E0E0;" points="223.506,466.041 289.965,469.837 324.677,415.968 300.303,417.949 238.61,439.674 		"/>
		<g>
			<path style="fill:#EBEBEB;" d="M214.172,462.046l61.029,0.963c-2.535-7.807,3.444-18.804,11.648-22.503
				c5.438-2.452,15.671-5.628,20.951-8.336c10.033-5.147,19.099-14.893,18.306-23.256l-25.065-0.798l-31.991-1.236
				c-2.675,7.936-8.397,13.135-17.096,16.262c-7.785,2.799-16.645,2.792-24.238,5.972
				C215.494,434.233,209.621,450.817,214.172,462.046"/>
			<g>
				<path style="fill:#263238;" d="M214.172,462.046c0,0-0.058-0.13-0.153-0.394c-0.099-0.278-0.237-0.668-0.418-1.177
					c-0.213-0.512-0.337-1.186-0.52-1.976c-0.219-0.785-0.292-1.724-0.421-2.778c-0.155-2.112-0.133-4.752,0.484-7.759
					c0.621-2.995,1.801-6.37,3.914-9.686c0.548-0.814,1.075-1.675,1.757-2.454c0.331-0.396,0.641-0.818,0.999-1.207
					c0.372-0.376,0.747-0.757,1.127-1.142c0.366-0.401,0.787-0.751,1.22-1.096c0.432-0.345,0.85-0.719,1.307-1.051
					c0.957-0.601,1.884-1.303,2.971-1.772c4.229-2.132,9.281-3.031,14.542-3.984c2.638-0.479,5.354-0.982,8.081-1.732
					c2.715-0.77,5.45-1.799,8.045-3.238c1.304-0.705,2.564-1.528,3.755-2.463c1.2-0.924,2.325-1.974,3.332-3.147
					c2.052-2.319,3.596-5.139,4.637-8.185l0.056-0.162l0.171,0.007c8.496,0.324,17.414,0.664,26.656,1.016
					c9.242,0.364,18.814,0.615,28.612,0.943c0.602,0.019,1.202,0.038,1.787,0.057l0.221,0.007l0.019,0.218
					c0.168,1.933-0.184,3.856-0.807,5.641c-0.284,0.908-0.72,1.748-1.118,2.6c-0.471,0.813-0.911,1.643-1.459,2.4
					c-2.081,3.107-4.747,5.708-7.561,7.993c-2.838,2.268-5.917,4.152-9.124,5.637c-3.22,1.447-6.479,2.627-9.672,3.808
					c-3.191,1.181-6.348,2.3-9.345,3.604c-1.47,0.685-2.882,1.466-4.105,2.492c-0.649,0.463-1.19,1.049-1.783,1.568
					c-0.522,0.59-1.103,1.124-1.567,1.753c-1.971,2.418-3.452,5.158-4.268,8.021c-0.864,2.843-0.96,5.852-0.151,8.539l0.082,0.271
					l-0.278-0.005c-18.485-0.328-33.736-0.599-44.384-0.787c-5.306-0.108-9.462-0.192-12.308-0.25
					c-1.405-0.035-2.484-0.062-3.229-0.081C214.547,462.073,214.172,462.046,214.172,462.046c0,0,0.376-0.015,1.106-0.014
					c0.745,0.005,1.824,0.012,3.229,0.021c2.847,0.032,7.003,0.079,12.31,0.139c10.648,0.147,25.9,0.358,44.387,0.614l-0.196,0.266
					c-0.848-2.784-0.747-5.878,0.128-8.782c0.828-2.926,2.33-5.716,4.333-8.183c0.472-0.641,1.062-1.188,1.595-1.789
					c0.603-0.531,1.155-1.129,1.818-1.604c1.246-1.049,2.702-1.859,4.2-2.558c3.022-1.32,6.177-2.442,9.367-3.627
					c3.189-1.184,6.445-2.367,9.635-3.804c3.165-1.469,6.214-3.337,9.018-5.581c2.781-2.261,5.415-4.835,7.457-7.887
					c0.539-0.744,0.968-1.557,1.43-2.352c0.388-0.832,0.814-1.653,1.089-2.534c0.604-1.734,0.941-3.586,0.781-5.431l0.239,0.225
					c-0.585-0.019-1.186-0.038-1.788-0.057c-9.799-0.328-19.371-0.583-28.614-0.953c-9.242-0.362-18.16-0.711-26.656-1.044
					l0.226-0.156c-1.062,3.095-2.642,5.969-4.737,8.329c-1.029,1.193-2.177,2.261-3.399,3.198c-1.214,0.948-2.494,1.781-3.818,2.493
					c-2.634,1.453-5.397,2.485-8.142,3.256c-2.752,0.749-5.481,1.247-8.121,1.719c-5.264,0.936-10.288,1.82-14.46,3.906
					c-1.071,0.457-1.986,1.146-2.933,1.733c-0.452,0.325-0.865,0.693-1.293,1.032c-0.429,0.338-0.846,0.681-1.208,1.076
					c-0.377,0.379-0.75,0.753-1.119,1.123c-0.356,0.382-0.664,0.798-0.993,1.188c-0.678,0.766-1.203,1.616-1.75,2.419
					c-2.109,3.272-3.3,6.613-3.938,9.581c-0.633,2.981-0.678,5.601-0.548,7.703c0.117,1.048,0.177,1.984,0.383,2.767
					c0.17,0.789,0.281,1.463,0.482,1.977c0.165,0.513,0.291,0.906,0.382,1.186C214.138,461.906,214.172,462.046,214.172,462.046z"/>
			</g>
		</g>
		<g>
			<path style="fill:#263238;" d="M286.193,407.869c-0.044-0.013,0.08-0.392,0.138-1.091c0.053-0.693,0.007-1.734-0.479-2.882
				c-0.47-1.135-1.406-2.393-2.885-3.091c-1.457-0.702-3.383-0.849-5.143-0.185c-1.773,0.651-3.05,2.095-3.715,3.576
				c-0.692,1.492-0.786,3.03-0.587,4.251c0.2,1.233,0.667,2.159,1.043,2.747c0.378,0.594,0.66,0.874,0.629,0.904
				c-0.016,0.019-0.347-0.216-0.787-0.793c-0.437-0.572-0.975-1.51-1.23-2.795c-0.254-1.273-0.195-2.908,0.515-4.5
				c0.68-1.58,2.039-3.148,3.958-3.854c1.895-0.714,3.957-0.542,5.519,0.238c1.591,0.781,2.558,2.16,3.01,3.372
				c0.47,1.23,0.46,2.324,0.345,3.035c-0.06,0.358-0.132,0.63-0.204,0.807C286.252,407.785,286.209,407.875,286.193,407.869z"/>
		</g>
		<g>
			<path style="fill:#263238;" d="M295.758,407.869c-0.044-0.013,0.08-0.392,0.138-1.091c0.053-0.693,0.007-1.734-0.479-2.882
				c-0.47-1.135-1.406-2.393-2.885-3.091c-1.457-0.702-3.382-0.849-5.143-0.185c-1.773,0.651-3.05,2.095-3.715,3.576
				c-0.693,1.492-0.786,3.03-0.587,4.251c0.2,1.233,0.667,2.159,1.043,2.747c0.378,0.594,0.66,0.874,0.629,0.904
				c-0.016,0.019-0.347-0.216-0.787-0.793c-0.437-0.572-0.975-1.51-1.23-2.795c-0.254-1.273-0.195-2.908,0.515-4.5
				c0.68-1.58,2.039-3.148,3.958-3.854c1.895-0.714,3.957-0.542,5.519,0.238c1.591,0.781,2.558,2.16,3.01,3.372
				c0.47,1.23,0.46,2.324,0.345,3.035c-0.06,0.358-0.132,0.63-0.204,0.807C295.817,407.785,295.774,407.875,295.758,407.869z"/>
		</g>
		<g>
			<path style="fill:#263238;" d="M303.023,408.366c-0.045-0.011,0.058-0.396,0.076-1.097c0.014-0.695-0.091-1.731-0.642-2.85
				c-0.534-1.106-1.539-2.31-3.055-2.923c-1.495-0.618-3.425-0.656-5.145,0.107c-1.733,0.75-2.927,2.264-3.507,3.78
				c-0.607,1.529-0.613,3.069-0.346,4.277c0.27,1.22,0.788,2.118,1.197,2.684c0.411,0.571,0.709,0.835,0.679,0.867
				c-0.015,0.019-0.359-0.196-0.831-0.748c-0.468-0.546-1.059-1.452-1.386-2.721c-0.326-1.256-0.36-2.892,0.26-4.522
				c0.589-1.616,1.857-3.259,3.733-4.071c1.851-0.82,3.92-0.766,5.523-0.075c1.632,0.69,2.677,2.012,3.196,3.197
				c0.539,1.201,0.591,2.294,0.517,3.01c-0.039,0.36-0.096,0.636-0.158,0.817C303.077,408.279,303.039,408.37,303.023,408.366z"/>
		</g>
		<g>
			<path style="fill:#263238;" d="M310.811,408.809c-0.046-0.008,0.036-0.398,0.017-1.1c-0.023-0.695-0.182-1.724-0.792-2.813
				c-0.592-1.076-1.659-2.225-3.206-2.757c-1.525-0.538-3.455-0.474-5.132,0.379c-1.691,0.84-2.803,2.415-3.302,3.961
				c-0.525,1.559-0.45,3.097-0.119,4.289c0.334,1.204,0.899,2.073,1.337,2.616c0.441,0.548,0.752,0.797,0.724,0.83
				c-0.014,0.02-0.369-0.177-0.869-0.703c-0.497-0.52-1.134-1.394-1.528-2.644c-0.392-1.237-0.512-2.868,0.02-4.529
				c0.503-1.645,1.682-3.353,3.512-4.263c1.805-0.917,3.874-0.972,5.511-0.367c1.667,0.602,2.779,1.867,3.361,3.023
				c0.602,1.171,0.712,2.26,0.675,2.979c-0.02,0.362-0.062,0.641-0.114,0.824C310.861,408.719,310.828,408.813,310.811,408.809z"/>
		</g>
		<g>
			<path style="fill:#263238;" d="M318.615,408.626c-0.046-0.007,0.026-0.399-0.013-1.1c-0.042-0.694-0.231-1.718-0.87-2.789
				c-0.622-1.06-1.721-2.178-3.282-2.666c-1.54-0.495-3.467-0.376-5.119,0.523c-1.667,0.888-2.734,2.493-3.189,4.052
				c-0.481,1.573-0.363,3.109,0.002,4.291c0.367,1.194,0.957,2.047,1.41,2.578c0.456,0.536,0.774,0.775,0.747,0.809
				c-0.013,0.021-0.374-0.167-0.889-0.678c-0.511-0.506-1.173-1.362-1.602-2.6c-0.427-1.226-0.593-2.853-0.107-4.528
				c0.456-1.658,1.588-3.399,3.391-4.36c1.779-0.967,3.845-1.08,5.499-0.522c1.683,0.555,2.831,1.789,3.445,2.927
				c0.635,1.154,0.775,2.239,0.759,2.958c-0.01,0.362-0.044,0.642-0.091,0.827C318.662,408.534,318.632,408.629,318.615,408.626z"/>
		</g>
		<g>
			<path style="fill:#263238;" d="M325.191,409.503c-0.046-0.009,0.041-0.398,0.03-1.099c-0.015-0.695-0.162-1.726-0.759-2.822
				c-0.579-1.083-1.633-2.245-3.173-2.795c-1.519-0.556-3.449-0.514-5.136,0.319c-1.701,0.82-2.831,2.382-3.348,3.922
				c-0.544,1.552-0.486,3.092-0.169,4.288c0.319,1.208,0.874,2.083,1.306,2.632c0.435,0.554,0.743,0.805,0.714,0.838
				c-0.014,0.02-0.367-0.181-0.861-0.713c-0.49-0.526-1.117-1.408-1.497-2.662c-0.377-1.242-0.479-2.874,0.073-4.529
				c0.522-1.639,1.722-3.333,3.563-4.222c1.816-0.896,3.885-0.926,5.516-0.302c1.659,0.622,2.757,1.9,3.325,3.062
				c0.589,1.178,0.685,2.268,0.64,2.986c-0.024,0.362-0.07,0.64-0.124,0.823C325.241,409.413,325.207,409.506,325.191,409.503z"/>
		</g>
	</g>
</g>
<g id="Air_Balloon">
	<g>
		<path style="fill:#E8505B;" d="M353.952,204.652c-2.627-0.074-5.414,0.02-8.268,0.374c-17.231,2.135-30.071,16.936-30.037,34.299
			c0.01,5.056,0.55,10.714,2.138,16.348c4.807,17.055,6.291,32.093,5.736,39.413l16.097,8.653c0,0,7.453-10.706,14.65-15.325
			c7.198-4.618,31.163-16.963,40.65-29.655c6.116-8.183,7.291-24.975-7.288-39.661C378.721,210.125,366.59,205.008,353.952,204.652z
			"/>
		<polygon style="fill:#455A64;" points="315.901,313.712 330.443,321.572 320.977,333.593 311.283,329.187 		"/>
		<g>
			<path style="fill:#263238;" d="M316.607,314.197c-0.129-0.047,1.314-4.363,3.223-9.639c1.909-5.278,3.561-9.518,3.69-9.471
				c0.129,0.047-1.314,4.362-3.223,9.64C318.388,310.003,316.736,314.243,316.607,314.197z"/>
		</g>
		<g>
			<path style="fill:#263238;" d="M329.526,320.98c-0.118-0.07,2.16-4.147,5.089-9.105c2.929-4.96,5.398-8.924,5.517-8.854
				c0.118,0.07-2.16,4.146-5.089,9.106C332.114,317.086,329.644,321.05,329.526,320.98z"/>
		</g>
		<g style="opacity:0.4;">
			<path d="M358.801,205.109c-0.653,0.036-8.654,9.402-12.194,15.741c-11.908,21.326-12.443,42.082-15.748,66.283
				c-0.472,3.457-2.191,10.911-2.158,10.738c1.762,1.381,7.684,4.13,7.684,4.13s5.584-6.74,7.803-10.13
				c8.887-13.575,18.534-24.157,26.141-38.488c7.607-14.332,14.928-27.04,7.888-41.659
				C378.217,211.723,366.024,204.704,358.801,205.109z"/>
		</g>
		<g>
			<path style="fill:#263238;" d="M394.979,260.904c-0.012,0.004-0.083-0.154-0.208-0.461c-0.134-0.304-0.287-0.772-0.556-1.352
				c-0.525-1.163-1.383-2.838-2.81-4.727c-1.432-1.872-3.429-3.987-6.177-5.763c-2.704-1.817-6.185-3.256-10.132-3.751l-0.097-0.012
				l-0.057-0.077c-1.85-2.495-3.971-5.069-6.497-7.458c-2.521-2.382-5.473-4.574-8.869-6.107c-3.388-1.512-7.038-2.182-10.482-1.998
				c-3.445,0.174-6.675,1.269-9.174,3.057l-0.145,0.104l-0.134-0.118c-2.989-2.629-6.571-3.988-9.797-4.354
				c-3.249-0.375-6.132,0.223-8.33,1.062c-2.215,0.843-3.777,1.915-4.785,2.693c-0.503,0.393-0.878,0.713-1.122,0.937
				c-0.247,0.222-0.38,0.332-0.388,0.324c-0.009-0.009,0.107-0.136,0.339-0.376c0.229-0.242,0.59-0.581,1.084-0.995
				c0.988-0.819,2.543-1.94,4.777-2.832c2.215-0.887,5.146-1.534,8.468-1.182c3.297,0.343,6.97,1.704,10.051,4.387l-0.278-0.014
				c2.564-1.855,5.884-2.992,9.409-3.177c3.525-0.197,7.25,0.484,10.712,2.028c3.461,1.561,6.454,3.793,8.998,6.208
				c2.549,2.422,4.676,5.026,6.524,7.544l-0.154-0.089c4.026,0.525,7.557,2.016,10.284,3.885c2.772,1.828,4.769,3.997,6.186,5.912
				c1.411,1.933,2.239,3.643,2.726,4.831c0.251,0.592,0.382,1.071,0.495,1.383C394.943,260.735,394.991,260.9,394.979,260.904z"/>
		</g>
		<g>
			<path style="fill:#263238;" d="M365.056,282.155c-0.097,0.034-0.079-1.455-1.388-3.498c-0.661-0.992-1.649-2.119-3.091-2.967
				c-1.408-0.873-3.294-1.459-5.327-1.262l-0.202,0.019l-0.031-0.2c-0.322-2.068-1.179-4.268-2.641-6.218
				c-1.454-1.94-3.49-3.671-5.972-4.636c-2.038-0.812-4.207-1.096-6.244-0.957c-2.041,0.146-3.945,0.725-5.561,1.571l-0.153,0.08
				l-0.118-0.126c-1.609-1.724-3.686-2.691-5.59-3.028c-1.911-0.386-3.654-0.192-5.012,0.157c-2.751,0.75-3.923,2.079-3.978,1.975
				c-0.008-0.009,0.064-0.083,0.213-0.217c0.154-0.128,0.364-0.343,0.682-0.565c0.626-0.454,1.622-1.042,3.012-1.451
				c1.382-0.396,3.171-0.632,5.151-0.265c1.971,0.318,4.147,1.293,5.853,3.091l-0.271-0.046c1.664-0.889,3.629-1.5,5.738-1.659
				c2.104-0.153,4.349,0.136,6.463,0.978c2.577,1.003,4.681,2.802,6.172,4.813c1.5,2.022,2.367,4.3,2.677,6.439l-0.233-0.18
				c2.151-0.186,4.11,0.461,5.553,1.389c1.478,0.905,2.47,2.091,3.118,3.13c0.644,1.055,0.929,1.993,1.066,2.633
				c0.07,0.32,0.081,0.574,0.104,0.741C365.065,282.066,365.068,282.153,365.056,282.155z"/>
		</g>
		<g>
			<path style="fill:#263238;" d="M327.632,325.357c-0.037,0.028-0.158-0.199-0.534-0.354c-0.375-0.157-0.98-0.178-1.701,0.052
				c-0.368,0.098-0.787,0.234-1.286,0.235c-0.5,0.009-1.054-0.233-1.437-0.634c-0.772-0.803-1.065-1.965-1.794-2.768
				c-0.363-0.393-0.835-0.595-1.34-0.565c-0.504,0.02-1.011,0.187-1.516,0.303c-0.502,0.12-1.034,0.196-1.524,0.081
				c-0.486-0.103-0.884-0.344-1.191-0.61c-0.617-0.541-0.887-1.178-0.957-1.616c-0.075-0.444-0.004-0.689,0.021-0.686
				c0.043,0.001,0.041,0.243,0.166,0.639c0.12,0.391,0.417,0.944,0.992,1.391c0.286,0.219,0.643,0.409,1.05,0.478
				c0.401,0.078,0.854,0.006,1.334-0.122c0.482-0.12,0.998-0.31,1.606-0.345c0.611-0.055,1.292,0.228,1.72,0.71
				c0.845,0.962,1.111,2.105,1.763,2.792c0.315,0.337,0.71,0.526,1.118,0.54c0.41,0.017,0.815-0.086,1.192-0.165
				c0.761-0.198,1.473-0.126,1.869,0.116C327.591,325.072,327.654,325.356,327.632,325.357z"/>
		</g>
		<g>
			<path style="fill:#263238;" d="M329.299,323.023c-0.064,0.121-3.241-1.448-7.094-3.503c-3.854-2.056-6.926-3.82-6.861-3.942
				c0.065-0.121,3.24,1.447,7.095,3.503C326.292,321.138,329.364,322.902,329.299,323.023z"/>
		</g>
		<g>
			<path style="fill:#263238;" d="M326.411,326.691c0.008,0.038-0.203,0.1-0.554,0.263c-0.177,0.079-0.38,0.199-0.657,0.311
				c-0.277,0.115-0.636,0.158-1.002,0.131c-0.726-0.051-1.621-0.279-2.396-0.924c-0.385-0.314-0.71-0.774-0.914-1.257
				c-0.214-0.474-0.382-0.962-0.704-1.309c-0.665-0.711-1.741-0.787-2.634-0.755c-0.918,0.034-1.822,0.061-2.529-0.242
				c-0.697-0.291-1.12-0.786-1.278-1.172c-0.163-0.392-0.105-0.633-0.081-0.63c0.043-0.005,0.057,0.221,0.253,0.542
				c0.19,0.316,0.6,0.714,1.232,0.932c0.627,0.225,1.449,0.175,2.386,0.113c0.912-0.048,2.145-0.033,3.018,0.877
				c0.414,0.457,0.582,1,0.782,1.446c0.188,0.456,0.439,0.819,0.769,1.109c0.655,0.579,1.464,0.832,2.129,0.92
				c0.673,0.123,1.158-0.159,1.558-0.273C326.179,326.66,326.406,326.663,326.411,326.691z"/>
		</g>
	</g>
</g>
<g id="Character">
	<g>
		<g>
			<path style="fill:#E8505B;" d="M216.62,233.296l25.146-3.729l-12.023-17.032l-6.447,0.38c-4.339,0.256-8.164,2.937-9.884,6.929v0
				c-0.914,2.12-1.168,4.466-0.73,6.733L216.62,233.296z"/>
			<path style="opacity:0.4;" d="M216.62,233.296l25.146-3.729l-12.023-17.032l-6.447,0.38c-4.339,0.256-8.164,2.937-9.884,6.929v0
				c-0.914,2.12-1.168,4.466-0.73,6.733L216.62,233.296z"/>
		</g>
		<g>
			<g>
				<path style="fill:#FFBE9D;" d="M324.637,261.161c0.259,0.72,0.542,1.573,0.828,2.592c0.246,0.875,0.332,1.787,0.271,2.694
					c-0.074,1.099-0.233,2.557-0.567,3.327c-0.414,0.954,0.547,1.914,1.362,1.437c0.815-0.477,2.019-3.077,1.944-6.424
					c-0.074-3.347,3.34,0.665,4.61,2.104c1.271,1.439,5.41,5.709,6.162,5.669c1.103-0.059,1.243-1.251-0.059-2.659
					c-1.318-1.425-4.91-5.906-4.117-6.54c0.781-0.625,7.148,6.792,7.148,6.792s1.104,1.806,2.045,1.103
					c1.696-1.267-5.653-8.653-6.37-9.338c-0.498-0.477,0.339-1.196,0.846-0.656c0.523,0.556,6.179,7.546,7.918,6.272
					c1.334-0.977-5.989-6.131-6.357-8.233c-0.368-2.102,5.156,4.473,6.392,3.488c0.461-0.367,0.753-0.705-2.964-4.023
					c-1.804-1.611-8.664-6.411-8.664-6.411l-20.639-59.095l-15.939,9.128L324.637,261.161z"/>
			</g>
			<path style="fill:#FFBE9D;" d="M201.773,149.402l-23.064-27.525l-0.002,0.001c-0.299-0.946-0.658-1.869-1.128-2.744
				c-1.153-2.147-3.06-4.018-5.441-4.539c-1.463-0.32-3.137-0.166-4.285-1.128c-0.513-0.43-0.855-1.042-1.393-1.441
				c-0.537-0.399-1.433-0.476-1.777,0.099c-0.245,0.409-0.089,0.933,0.096,1.372c0.856,2.032,2.255,3.827,4.004,5.168
				c-2.163,0.657-5.251,1.651-5.251,1.651s-4.876-5.29-7.373-5.273c-2.497,0.017,2.018,4.723,2.018,4.723s-3.999-3.695-5.239-2.654
				c-1.24,1.042,1.938,3.785,1.938,3.785c-1.01-0.54-2.115-1.096-3.244-0.909c-1.129,0.188-2.101,1.521-1.493,2.49
				c0.233,0.372,0.632,0.6,1.016,0.814c2.046,1.14,4.092,2.281,6.139,3.422c1.027,0.573,2.106,1.16,3.282,1.196
				c3.114,0.096,5.482-1.832,8.596-1.749c0,0,17.392,36.611,19.151,38.499c1.759,1.888,39.967,4.459,39.967,4.459l22.114-19.053
				L201.773,149.402z"/>
			<g>
				<path style="fill:#E8505B;" d="M271.046,348.827l23.553,10.258l-12.613,29.368c-2.732-1.377-1.839-18.989-1.839-18.989
					l-15.36-5.953L271.046,348.827z"/>
				<g style="opacity:0.6;">
					<path style="fill:#FFFFFF;" d="M282.774,359.836c0.4-0.502,1.207-0.62,1.725-0.241c0.518,0.378,0.645,1.199,0.254,1.707
						c-0.391,0.509-1.356,0.68-1.828,0.246c-0.472-0.434-0.569-1.406-0.068-1.806"/>
				</g>
				<path style="opacity:0.6;fill:#FFFFFF;" d="M294.598,359.085l-2.414-0.941l-11.19,28.51c0,0,0.007,1.552,0.992,1.8
					L294.598,359.085z"/>
				<g>
					<path style="fill:#263238;" d="M279.793,369.876c0.146,0.057,0.518-0.632,1.283-1.14c0.751-0.528,1.528-0.624,1.528-0.781
						c0.029-0.144-0.92-0.299-1.835,0.332C279.849,368.91,279.648,369.85,279.793,369.876z"/>
				</g>
				<g>
					<path style="fill:#263238;" d="M279.744,373.503c0.125,0.092,0.635-0.424,1.451-0.65c0.809-0.251,1.518-0.092,1.573-0.237
						c0.081-0.125-0.717-0.585-1.726-0.284C280.031,372.624,279.608,373.441,279.744,373.503z"/>
				</g>
				<g>
					<path style="fill:#263238;" d="M282.679,376.836c0.087-0.117-0.544-0.625-1.488-0.594c-0.944,0.024-1.544,0.567-1.451,0.679
						c0.083,0.132,0.691-0.123,1.466-0.136C281.982,376.754,282.604,376.973,282.679,376.836z"/>
				</g>
				<g>
					<path style="fill:#263238;" d="M276.443,368.131c0.156-0.004,0.241-0.747,0.644-1.534c0.387-0.795,0.93-1.309,0.839-1.436
						c-0.068-0.128-0.863,0.26-1.325,1.194C276.132,367.284,276.3,368.153,276.443,368.131z"/>
				</g>
				<g>
					<path style="fill:#263238;" d="M273.258,365.935c0.059,0.027,0.391-0.502,0.624-1.474c0.115-0.484,0.196-1.078,0.188-1.742
						c-0.005-0.332-0.031-0.68-0.086-1.037c-0.029-0.173-0.048-0.371-0.155-0.593c-0.081-0.223-0.423-0.477-0.735-0.393
						c-0.29,0.053-0.502,0.277-0.598,0.487c-0.1,0.214-0.132,0.408-0.161,0.584c-0.061,0.361-0.084,0.714-0.079,1.049
						c0.014,0.671,0.141,1.265,0.308,1.738c0.338,0.952,0.774,1.415,0.823,1.378c0.075-0.045-0.232-0.569-0.454-1.486
						c-0.111-0.457-0.189-1.014-0.176-1.629c0.008-0.307,0.04-0.629,0.102-0.956c0.052-0.346,0.163-0.612,0.336-0.632
						c0.065-0.006,0.088-0.001,0.151,0.103c0.055,0.103,0.083,0.265,0.112,0.435c0.058,0.333,0.093,0.657,0.11,0.968
						c0.034,0.621-0.003,1.186-0.066,1.656C273.378,365.333,273.18,365.904,273.258,365.935z"/>
				</g>
				<g>
					<path style="fill:#263238;" d="M273.544,365.836c0.044-0.041-0.348-0.547-1.254-0.998c-0.45-0.222-1.029-0.414-1.697-0.491
						c-0.333-0.036-0.688-0.043-1.054-0.009c-0.364,0.047-0.843,0.09-1.146,0.619c-0.136,0.286-0.012,0.625,0.146,0.791
						c0.157,0.182,0.319,0.275,0.474,0.382c0.32,0.201,0.659,0.339,0.99,0.426c0.665,0.176,1.295,0.143,1.789,0.024
						c1.008-0.247,1.436-0.772,1.393-0.805c-0.051-0.079-0.543,0.302-1.463,0.427c-0.453,0.062-1.012,0.05-1.582-0.128
						c-0.284-0.088-0.571-0.216-0.838-0.392c-0.293-0.18-0.494-0.405-0.412-0.508c0.06-0.147,0.402-0.294,0.703-0.308
						c0.328-0.038,0.649-0.042,0.954-0.022c0.61,0.044,1.152,0.182,1.59,0.345C273.018,365.521,273.489,365.905,273.544,365.836z"/>
				</g>
			</g>
			<g>
				<path style="fill:#E8505B;" d="M252.906,389.172l9.741,20.409l3.051,18.364c0.22,1.323,1.514,2.184,2.82,1.875l0,0
					c0.731-0.173,1.33-0.683,1.611-1.379c1.791-4.434,8.297-20.777,7.5-22.231c-0.922-1.684-8.847-22.211-8.847-22.211
					L252.906,389.172z"/>
				<path style="opacity:0.6;fill:#FFFFFF;" d="M268.518,429.821l8.486-25.002l0.393,0.874c0.34,0.756,0.404,1.606,0.173,2.402
					c-0.618,2.128-2.453,7.966-7.378,20.32C269.906,429.132,269.275,429.663,268.518,429.821L268.518,429.821z"/>
				<g style="opacity:0.6;">
					<path style="fill:#FFFFFF;" d="M269.78,400.067c-0.356,0.59-0.174,1.447,0.401,1.827c0.575,0.38,1.448,0.202,1.815-0.381
						c0.366-0.583,0.179-1.62-0.435-1.933c-0.613-0.313-1.628-0.048-1.844,0.606"/>
				</g>
				<g>
					<path style="fill:#263238;" d="M269.181,418.689c-0.091,0.109-1.042-0.762-2.53-0.791c-1.487-0.074-2.496,0.729-2.579,0.613
						c-0.041-0.043,0.148-0.32,0.601-0.605c0.447-0.286,1.175-0.531,1.996-0.504c0.821,0.03,1.53,0.326,1.956,0.642
						C269.056,418.359,269.225,418.649,269.181,418.689z"/>
				</g>
				<g>
					<path style="fill:#263238;" d="M268.954,422.112c-0.058,0.133-1.022-0.24-2.226-0.066c-1.208,0.147-2.04,0.759-2.131,0.646
						c-0.107-0.079,0.689-0.962,2.065-1.138C268.036,421.363,269.036,422.008,268.954,422.112z"/>
				</g>
				<g>
					<path style="fill:#263238;" d="M270.325,413.919c-0.053,0.141-1.532-0.44-3.428-0.333c-1.898,0.077-3.314,0.798-3.38,0.662
						c-0.083-0.095,1.321-1.07,3.356-1.158C268.907,412.981,270.398,413.817,270.325,413.919z"/>
				</g>
				<g>
					<path style="fill:#263238;" d="M267.882,407.468c0,0.148-1.353,0.184-2.86,0.797c-1.516,0.592-2.522,1.498-2.624,1.39
						c-0.102-0.075,0.813-1.21,2.44-1.851C266.459,407.149,267.904,407.343,267.882,407.468z"/>
				</g>
				<g>
					<path style="fill:#263238;" d="M265.174,401.404c-0.01,0.148-1.465-0.025-2.999,0.751c-1.551,0.741-2.303,1.999-2.426,1.917
						c-0.053-0.028,0.056-0.388,0.408-0.877c0.348-0.487,0.97-1.076,1.799-1.486c0.831-0.407,1.677-0.54,2.275-0.518
						C264.832,401.211,265.184,401.345,265.174,401.404z"/>
				</g>
				<g>
					<path style="fill:#263238;" d="M261.693,400.987c-0.026,0.012-0.197-0.244-0.379-0.768c-0.179-0.52-0.364-1.321-0.298-2.322
						c0.051-0.483,0.061-1.081,0.515-1.611c0.225-0.266,0.675-0.405,1.043-0.241c0.362,0.157,0.591,0.461,0.745,0.785
						c0.567,1.319,0.012,3.091-1.376,3.941c-1.406,0.827-3.125,0.585-4.218-0.283c-0.26-0.235-0.51-0.554-0.506-0.975
						c-0.001-0.422,0.355-0.751,0.674-0.833c0.654-0.184,1.199-0.005,1.676,0.096c0.968,0.252,1.678,0.655,2.128,0.97
						c0.453,0.317,0.656,0.548,0.637,0.57c-0.048,0.086-0.977-0.779-2.846-1.198c-0.461-0.083-1.004-0.205-1.463-0.048
						c-0.224,0.075-0.371,0.244-0.37,0.452c-0.004,0.202,0.156,0.441,0.37,0.621c0.911,0.703,2.483,0.92,3.66,0.203
						c1.177-0.704,1.662-2.263,1.216-3.328c-0.111-0.255-0.294-0.48-0.497-0.57c-0.2-0.088-0.422-0.038-0.577,0.125
						c-0.329,0.342-0.403,0.897-0.461,1.356C261.177,399.833,261.794,400.966,261.693,400.987z"/>
				</g>
			</g>
			<g>
				<path style="fill:#263238;" d="M285.729,351.32l-26.706-17.977l8.838-86.793l-25.297-14.773l-23.133-5.36
					c0,0-9.662,20.099-13.958,32.966c-9.138,27.365-15.552,37.172-14.086,57.008c0.464,6.278,23.647,21.982,38.288,30.707
					c0.201,2.003,0.457,3.753,0.777,5.197c5.003,22.617,20.274,52.695,20.274,52.695l23.209-10.79l-7.489-25.646l7.8,4.549
					L285.729,351.32z M228.323,295.355l3.116-13.912c-0.659,8.845-1.261,18.074-1.692,26.923
					C228.247,304.276,227.736,299.731,228.323,295.355z"/>
				<g>
					<path style="fill:#455A64;" d="M250.725,404.989c-0.008,0.003-0.069-0.121-0.18-0.366c-0.118-0.268-0.277-0.631-0.481-1.095
						c-0.42-0.991-1.023-2.413-1.794-4.233c-1.542-3.683-3.749-9.022-6.405-15.648c-2.641-6.632-5.787-14.531-8.955-23.428
						c-0.789-2.225-1.563-4.519-2.29-6.887c-0.322-1.2-0.726-2.381-0.937-3.65c-0.061-0.313-0.132-0.628-0.183-0.942l-0.111-0.947
						c-0.071-0.633-0.141-1.269-0.213-1.908c-0.272-2.556-0.497-5.163-0.664-7.813c-0.084-1.325-0.156-2.66-0.208-4.006
						c-0.048-1.34-0.109-2.71-0.031-4.072c0.392-10.906,1.309-21.243,2.063-30.653c0.786-9.4,1.494-17.868,2.089-24.988
						c0.576-7.114,0.979-12.875,1.207-16.859c0.124-1.992,0.193-3.539,0.24-4.589c0.028-0.506,0.049-0.902,0.065-1.194
						c0.017-0.269,0.031-0.406,0.039-0.406c0.008,0,0.012,0.138,0.012,0.408c-0.004,0.292-0.009,0.688-0.015,1.195
						c-0.015,1.051-0.052,2.601-0.147,4.595c-0.169,3.989-0.518,9.757-1.05,16.876c-0.565,7.123-1.237,15.594-1.983,24.998
						c-0.728,9.407-1.632,19.755-2.022,30.626c-0.077,1.359-0.017,2.697,0.03,4.043c0.052,1.341,0.122,2.673,0.205,3.994
						c0.165,2.643,0.387,5.243,0.655,7.793c0.07,0.637,0.14,1.271,0.21,1.903l0.109,0.944c0.051,0.309,0.12,0.612,0.178,0.917
						c0.2,1.222,0.602,2.412,0.918,3.598c0.718,2.356,1.485,4.647,2.267,6.871c3.139,8.893,6.251,16.804,8.849,23.45
						c2.635,6.613,4.77,11.972,6.257,15.704c0.734,1.835,1.308,3.268,1.708,4.268c0.185,0.472,0.329,0.841,0.435,1.114
						C250.688,404.855,250.733,404.986,250.725,404.989z"/>
				</g>
				<g>
					<path style="fill:#455A64;" d="M232.875,248.372c-0.022,0.026-0.234-0.146-0.609-0.493c-0.348-0.366-0.77-0.982-1.129-1.815
						c-0.719-1.671-1.084-4.165-1.138-6.886c-0.05-2.728,0.152-5.185,0.331-6.954c0.184-1.769,0.335-2.858,0.401-2.853
						c0.07,0.005,0.043,1.107-0.051,2.88c-0.089,1.773-0.234,4.22-0.185,6.917c0.054,2.69,0.359,5.13,0.969,6.768
						c0.305,0.817,0.661,1.429,0.95,1.819C232.728,248.123,232.896,248.346,232.875,248.372z"/>
				</g>
				<g>
					<path style="fill:#455A64;" d="M222.887,227.715c0.05-0.011,0.291,0.91,0.199,2.428c-0.083,1.504-0.596,3.622-1.914,5.558
						c-1.32,1.936-3.103,3.188-4.473,3.816c-1.38,0.641-2.324,0.754-2.332,0.703c-0.024-0.082,0.878-0.316,2.174-1.017
						c1.29-0.689,2.96-1.932,4.221-3.782c1.26-1.85,1.806-3.858,1.975-5.311C222.914,228.648,222.802,227.723,222.887,227.715z"/>
				</g>
				<g>
					<path style="fill:#455A64;" d="M264.386,278.176c0.009,0.001,0.007,0.09-0.005,0.265c-0.017,0.202-0.038,0.456-0.065,0.772
						c-0.072,0.714-0.171,1.705-0.297,2.963c-0.284,2.61-0.689,6.32-1.186,10.89c-1.044,9.222-2.48,21.9-4.065,35.904
						c-0.613,7.011-0.001,13.759,1.315,19.704c0.65,2.979,1.512,5.746,2.418,8.306c0.898,2.564,1.735,4.954,2.501,7.139
						c1.505,4.343,2.728,7.869,3.588,10.349c0.404,1.198,0.722,2.142,0.952,2.822c0.096,0.302,0.174,0.545,0.236,0.738
						c0.051,0.167,0.072,0.254,0.064,0.257c-0.008,0.003-0.046-0.079-0.112-0.24c-0.074-0.189-0.167-0.427-0.282-0.722
						c-0.251-0.673-0.598-1.606-1.04-2.791c-0.895-2.467-2.169-5.976-3.736-10.297c-0.783-2.18-1.639-4.563-2.558-7.119
						c-0.926-2.56-1.81-5.348-2.476-8.343c-1.35-5.981-1.982-12.781-1.364-19.846c1.562-14.043,3.114-26.71,4.211-35.898
						c0.564-4.562,1.021-8.266,1.343-10.872c0.166-1.254,0.296-2.242,0.39-2.954c0.047-0.314,0.084-0.566,0.114-0.767
						C264.359,278.263,264.378,278.175,264.386,278.176z"/>
				</g>
			</g>
			<g>
				<polyline style="fill:#FFBE9D;" points="219.431,226.25 223.527,215.783 232.875,229.722 220.412,226.606 				"/>
				<path style="fill:#E8505B;" d="M317.253,194.783l-11.095-24.871c-1.326-3.999-3.814-4.62-5.898-6.94l-27.793-15.675
					c-20.255-8.296-31.283,19.527-31.283,19.527l-18.41,41.992c-21.649,7.177-6.32,23.804-6.32,23.804s-5.889-10.236-0.098-13.929
					c6.064-3.867,12.787,6.321,19.246,15.998c7.626,11.424,32.406,18.845,32.406,18.845c2.899-3.062,2.088-13.751,4.357-19.488
					c0.72-1.819,17.88-41.566,17.88-41.566l6.652,16.116c0,0,8.527-9.997,12.659-11.586
					C313.689,195.419,317.253,194.783,317.253,194.783z"/>
				<g>
					<path style="fill:#263238;" d="M268.008,212.458c0.016,0.026-0.275,0.247-0.841,0.587c-0.565,0.341-1.42,0.779-2.529,1.198
						c-2.198,0.847-5.525,1.504-9.133,0.947c-3.609-0.557-6.583-2.187-8.424-3.657c-0.93-0.734-1.613-1.409-2.049-1.905
						c-0.437-0.495-0.648-0.794-0.625-0.814c0.069-0.065,1.003,1.065,2.886,2.438c1.861,1.372,4.78,2.905,8.288,3.447
						c3.507,0.541,6.752-0.04,8.94-0.787C266.73,213.171,267.962,212.375,268.008,212.458z"/>
				</g>
				<path style="fill:#E8505B;" d="M221.95,173.019L221.95,173.019l17.152,1.618l27.438-29.001l-16.137-0.554l-28.737,2.836
					C221.666,147.918,224.211,159.896,221.95,173.019z"/>
				<g>
					<path style="fill:#263238;" d="M245.773,157.738c0.015,0.008-0.058,0.191-0.21,0.532c-0.18,0.387-0.408,0.877-0.688,1.48
						c-0.629,1.343-1.492,3.185-2.545,5.434c-2.133,4.596-4.963,10.998-8.03,18.097c-3.067,7.102-5.858,13.527-7.967,18.138
						c-1.053,2.307-1.922,4.165-2.547,5.438c-0.296,0.596-0.537,1.08-0.727,1.462c-0.171,0.332-0.268,0.503-0.284,0.495
						c-0.016-0.007,0.051-0.192,0.193-0.538c0.168-0.393,0.381-0.89,0.642-1.501c0.594-1.359,1.407-3.223,2.401-5.5
						c2.028-4.71,4.785-11.115,7.832-18.193c3.068-7.101,5.952-13.487,8.168-18.049c1.105-2.283,2.024-4.118,2.69-5.371
						c0.314-0.586,0.57-1.063,0.772-1.439C245.655,157.898,245.757,157.731,245.773,157.738z"/>
				</g>
				<g>
					<path style="fill:#263238;" d="M298.12,166.173c0.048,0.084-1.016,0.639-2.467,1.874c-0.731,0.61-1.523,1.425-2.318,2.397
						c-0.772,0.99-1.534,2.146-2.175,3.446c-0.623,1.309-1.059,2.624-1.358,3.843c-0.27,1.226-0.42,2.353-0.446,3.304
						c-0.07,1.904,0.153,3.082,0.057,3.097c-0.034,0.006-0.106-0.283-0.209-0.816c-0.057-0.266-0.112-0.593-0.134-0.979
						c-0.027-0.384-0.086-0.823-0.065-1.309c-0.019-0.973,0.097-2.133,0.35-3.397c0.281-1.257,0.716-2.615,1.357-3.96
						c0.659-1.336,1.455-2.519,2.267-3.518c0.835-0.982,1.674-1.791,2.45-2.379c0.369-0.318,0.749-0.544,1.068-0.76
						c0.316-0.221,0.608-0.381,0.852-0.501C297.832,166.265,298.104,166.142,298.12,166.173z"/>
				</g>
			</g>
			<g>
				<g>
					<g>
						<g>
							<g>
								<g>
									<g>
										<g>
											<g>
												<g>
													<g>
														<g>
															<g>
																<g>
																	<path style="fill:#FFBE9D;" d="M302.913,126.341l-16.091,30.077c-2.627,4.911-8.604,6.954-13.687,4.679l0,0
																		c-5.597-2.504-7.913-9.221-5.046-14.641c1.517-2.869,2.776-5.212,2.776-5.212s-6.996-4.534-3.724-12.093
																		c2.919-6.744,13.635-25.779,15.911-29.804l13.562,6.069C304.23,109.373,307.079,118.837,302.913,126.341z"/>
																</g>
															</g>
														</g>
													</g>
												</g>
											</g>
										</g>
										<g>
											<g>
												<g>
													<g>
														<g>
															<g>
																<g>
																	<path style="fill:#EB996E;" d="M270.901,141.131c0,0,4.578,2.512,11.047,1.6c0,0-4.738,4.374-11.936,0.34
																		L270.901,141.131z"/>
																</g>
															</g>
														</g>
													</g>
												</g>
											</g>
										</g>
									</g>
								</g>
							</g>
							<g>
								<g>
									<g>
										<g>
											<g>
												<g>
													<g>
														<g>
															<g>
																<g>
																	<g>
																		<g>
																			<g>
																				<path style="fill:#263238;" d="M276.069,117.083c-0.274,0.558-0.027,1.25,0.55,1.547
																					c0.576,0.296,1.266,0.085,1.54-0.473c0.274-0.558,0.027-1.25-0.549-1.546
																					C277.033,116.314,276.342,116.525,276.069,117.083z"/>
																			</g>
																		</g>
																	</g>
																</g>
															</g>
														</g>
													</g>
													<g>
														<g>
															<g>
																<g>
																	<g>
																		<g>
																			<g>
																				<g>
																					<path style="fill:#263238;" d="M276.13,116.126c0.071,0.199,1.153-0.038,2.307,0.482
																						c1.16,0.503,1.742,1.477,1.93,1.391c0.09-0.035,0.067-0.348-0.182-0.782c-0.243-0.43-0.747-0.968-1.468-1.287
																						c-0.721-0.318-1.445-0.324-1.914-0.209C276.326,115.834,276.092,116.034,276.13,116.126z"/>
																				</g>
																			</g>
																		</g>
																	</g>
																</g>
															</g>
														</g>
													</g>
												</g>
												<g>
													<g>
														<g>
															<g>
																<g>
																	<g>
																		<g>
																			<g>
																				<path style="fill:#263238;" d="M286.877,122.4c-0.274,0.558-0.027,1.25,0.551,1.546
																					c0.576,0.296,1.266,0.085,1.54-0.473c0.274-0.558,0.027-1.251-0.549-1.547
																					C287.841,121.63,287.151,121.842,286.877,122.4z"/>
																			</g>
																		</g>
																	</g>
																</g>
															</g>
														</g>
													</g>
													<g>
														<g>
															<g>
																<g>
																	<g>
																		<g>
																			<g>
																				<g>
																					<path style="fill:#263238;" d="M287.389,121.423c0.071,0.2,1.154-0.038,2.307,0.482
																						c1.16,0.503,1.742,1.477,1.931,1.391c0.089-0.035,0.068-0.348-0.182-0.783
																						c-0.244-0.43-0.747-0.968-1.468-1.287c-0.722-0.318-1.445-0.324-1.915-0.209
																						C287.586,121.132,287.352,121.331,287.389,121.423z"/>
																				</g>
																			</g>
																		</g>
																	</g>
																</g>
															</g>
														</g>
													</g>
												</g>
												<g>
													<g>
														<g>
															<g>
																<g>
																	<g>
																		<g>
																			<g>
																				<path style="fill:#263238;" d="M279.363,128.114c0.035-0.063-0.628-0.509-1.725-1.178
																					c-0.281-0.162-0.534-0.346-0.494-0.57c0.026-0.244,0.292-0.507,0.588-0.786c0.597-0.59,1.222-1.208,1.878-1.856
																					c2.643-2.656,4.697-4.893,4.589-4.999c-0.108-0.105-2.337,1.962-4.98,4.618
																					c-0.645,0.658-1.26,1.285-1.847,1.886c-0.262,0.285-0.624,0.58-0.671,1.089
																					c-0.019,0.256,0.126,0.513,0.292,0.648c0.163,0.142,0.328,0.22,0.47,0.294
																					C278.605,127.847,279.329,128.178,279.363,128.114z"/>
																			</g>
																		</g>
																	</g>
																</g>
															</g>
														</g>
													</g>
												</g>
												<g>
													<g>
														<g>
															<g>
																<g>
																	<g>
																		<g>
																			<g>
																				<path style="fill:#263238;" d="M282.405,130.435c-0.183-0.095-0.746,1.158-2.218,1.568
																					c-1.471,0.413-2.745-0.326-2.833-0.155c-0.053,0.071,0.189,0.377,0.746,0.645
																					c0.545,0.267,1.433,0.451,2.333,0.2c0.899-0.253,1.506-0.855,1.78-1.351
																					C282.495,130.839,282.494,130.466,282.405,130.435z"/>
																			</g>
																		</g>
																	</g>
																</g>
															</g>
														</g>
													</g>
												</g>
											</g>
										</g>
									</g>
									<g>
										<g>
											<g>
												<g>
													<g>
														<g>
															<g>
																<path style="fill:#263238;" d="M289.117,116.762c-0.027,0.365,1.193,0.732,2.476,1.502
																	c1.298,0.744,2.213,1.63,2.519,1.429c0.141-0.099,0.082-0.48-0.224-0.982c-0.302-0.5-0.872-1.101-1.645-1.556
																	c-0.774-0.453-1.577-0.657-2.16-0.677C289.496,116.456,289.135,116.591,289.117,116.762z"/>
															</g>
														</g>
													</g>
												</g>
											</g>
										</g>
									</g>
									<g>
										<g>
											<g>
												<g>
													<g>
														<g>
															<g>
																<path style="fill:#263238;" d="M278.051,112.972c0.086,0.353,1.003,0.437,1.966,0.853
																	c0.977,0.382,1.688,0.967,1.998,0.776c0.141-0.097,0.131-0.417-0.112-0.823c-0.238-0.404-0.731-0.867-1.398-1.142
																	c-0.667-0.273-1.343-0.291-1.796-0.171C278.251,112.584,278.019,112.804,278.051,112.972z"/>
															</g>
														</g>
													</g>
												</g>
											</g>
										</g>
									</g>
								</g>
							</g>
							<g>
								<g>
									<g>
										<g>
											<g>
												<g>
													<g>
														<g>
															<path style="fill:#FFBE9D;" d="M297.853,130.849c0.153,0.002,5.849,0.784,3.385,5.85
																c-2.464,5.066-7.042,1.547-6.98,1.398C294.32,137.947,297.853,130.849,297.853,130.849z"/>
														</g>
													</g>
												</g>
											</g>
										</g>
									</g>
								</g>
								<g>
									<g>
										<g>
											<g>
												<g>
													<g>
														<g>
															<g>
																<path style="fill:#EB996E;" d="M296.739,136.93c0.03-0.005,0.058,0.105,0.174,0.246
																	c0.113,0.137,0.341,0.305,0.653,0.334c0.631,0.064,1.495-0.567,1.963-1.468c0.237-0.455,0.354-0.941,0.368-1.384
																	c0.026-0.446-0.088-0.821-0.334-1c-0.238-0.193-0.507-0.124-0.639-0.012c-0.137,0.109-0.154,0.225-0.185,0.221
																	c-0.02,0.006-0.068-0.138,0.075-0.327c0.07-0.09,0.187-0.181,0.354-0.22c0.17-0.04,0.373-0.003,0.551,0.108
																	c0.378,0.217,0.554,0.747,0.54,1.234c0.006,0.499-0.115,1.05-0.381,1.561c-0.529,1.005-1.516,1.706-2.352,1.562
																	c-0.401-0.08-0.647-0.332-0.742-0.527C296.689,137.057,296.717,136.931,296.739,136.93z"/>
															</g>
														</g>
													</g>
												</g>
											</g>
										</g>
									</g>
								</g>
							</g>
						</g>
					</g>
					<g>
						<g>
							<g>
								<path style="fill:#263238;" d="M300.791,131.955c-0.699-0.54-2.379-0.424-3.041,0.161c-0.663,0.584-1.109,1.383-1.77,1.968
									c-0.662,0.585-1.712,0.912-2.414,0.376c-0.484-0.37-0.644-1.051-0.546-1.652c0.098-0.602,0.41-1.144,0.727-1.665
									c1.377-2.265,2.947-4.419,4.125-6.793c1.178-2.374,1.958-5.04,1.61-7.667c-0.348-2.628-2.001-5.185-4.5-6.07
									c-1.655-0.586-3.493-0.409-5.179-0.897c-1.999-0.578-3.691-2.133-4.437-4.076c-0.096-0.249-0.661-1.137-0.661-1.137
									c0.056-0.124,0.654-1.145,1.252-1.347c4.451-1.503,10.488,0.223,14.178,3.131s6.274,7.588,6.319,12.285
									C306.497,123.27,303.541,128.452,300.791,131.955"/>
							</g>
						</g>
					</g>
				</g>
				<g>
					<path style="fill:#263238;" d="M300.84,131.447c1.407-2.393,3.691-4.129,5.435-6.289c1.743-2.161,2.941-5.206,1.7-7.689
						c-0.424-0.849-1.103-1.56-1.457-2.44c-0.356-0.885-0.357-1.865-0.494-2.809c-0.423-2.917-2.267-5.595-4.842-7.03
						c-1.78-0.993-3.835-1.4-5.639-2.348c-2.857-1.502-4.947-4.286-7.949-5.473c-0.996-0.394-2.162-0.585-3.115-0.094
						c-0.952,0.491-1.463,1.872-0.769,2.689c-0.123-0.958-1.365-1.484-2.246-1.086c-0.88,0.398-1.331,1.446-1.271,2.41
						c0.06,0.964,0.538,1.853,1.091,2.645c1.823,2.611,4.611,4.531,7.7,5.303l6.903-0.538l5.659,4.194l4.189,6.666l-7.595,9.867
						L300.84,131.447z"/>
				</g>
			</g>
		</g>
	</g>
</g>
<g id="Light_Bulb">
	<g>
		<g>
			<path style="fill:#E8505B;" d="M257.652,92.098c-0.868-13.436-12.464-23.624-25.9-22.756
				c-13.436,0.868-23.624,12.464-22.756,25.9c0.629,9.728,6.882,17.749,15.384,21.108c0.186,2.883,0.396,6.137,0.396,6.137
				l21.323-1.378c0,0-0.094-3.453-0.245-6.531C253.428,110.032,258.261,101.521,257.652,92.098z"/>
			<g>
				<path style="fill:#263238;" d="M238.382,121.507c0,0-0.004-0.103,0.005-0.302c0.01-0.211,0.024-0.505,0.043-0.884
					c0.044-0.777,0.108-1.922,0.228-3.395c0.122-1.473,0.294-3.275,0.626-5.351c0.342-2.071,0.838-4.429,1.77-6.913
					c0.467-1.241,1.018-2.517,1.766-3.77c0.386-0.614,0.88-1.221,1.567-1.601c0.686-0.384,1.571-0.442,2.315-0.074
					c0.368,0.182,0.691,0.508,0.832,0.913c0.155,0.397,0.144,0.862-0.021,1.255c-0.326,0.794-1.009,1.376-1.775,1.741
					c-1.57,0.666-3.431,0.644-5.081-0.031c-1.655-0.674-3.034-2.089-3.697-3.837c-0.32-0.869-0.526-1.831-0.325-2.797
					c0.168-0.958,1.031-1.862,2.101-1.833c0.53,0.005,1.031,0.334,1.294,0.778c0.273,0.441,0.37,0.977,0.292,1.487
					c-0.169,1.03-0.852,1.837-1.554,2.528c-1.451,1.366-3.494,2.205-5.564,2.012c-2.056-0.194-3.971-1.421-4.931-3.203
					c-0.499-0.874-0.676-1.963-0.355-2.936c0.162-0.48,0.505-0.941,0.997-1.145c0.483-0.223,1.05-0.169,1.507,0.041
					c0.462,0.207,0.85,0.572,1.096,1.001c0.254,0.427,0.39,0.905,0.462,1.377c0.13,0.949,0.056,1.905-0.19,2.804
					c-0.479,1.802-1.643,3.372-3.166,4.301c-1.516,0.939-3.325,1.279-4.989,1.017c-0.822-0.127-1.672-0.397-2.265-1.02
					c-0.58-0.608-0.797-1.616-0.286-2.335c0.255-0.346,0.658-0.548,1.059-0.605c0.403-0.055,0.81,0.001,1.175,0.151
					c0.745,0.31,1.23,0.951,1.597,1.573c0.697,1.28,1.27,2.53,1.846,3.722c2.262,4.778,3.904,8.729,5.009,11.468
					c0.552,1.37,0.964,2.441,1.241,3.168c0.132,0.356,0.234,0.631,0.308,0.829c0.068,0.188,0.095,0.286,0.095,0.286
					s-0.047-0.091-0.124-0.275c-0.08-0.196-0.192-0.468-0.335-0.819c-0.3-0.731-0.735-1.789-1.293-3.146
					c-1.138-2.725-2.808-6.661-5.092-11.421c-0.578-1.182-1.167-2.447-1.854-3.696c-0.356-0.603-0.826-1.199-1.488-1.468
					c-0.642-0.266-1.514-0.208-1.944,0.378c-0.422,0.582-0.245,1.481,0.272,2.012c0.529,0.556,1.325,0.817,2.12,0.936
					c1.602,0.247,3.348-0.085,4.803-0.992c1.46-0.895,2.576-2.406,3.035-4.141c0.236-0.864,0.304-1.787,0.179-2.687
					c-0.122-0.885-0.555-1.791-1.391-2.155c-0.401-0.182-0.872-0.223-1.268-0.038c-0.404,0.168-0.69,0.545-0.836,0.972
					c-0.285,0.873-0.135,1.876,0.338,2.698c0.906,1.685,2.741,2.864,4.696,3.046c1.97,0.186,3.937-0.617,5.332-1.93
					c0.68-0.664,1.322-1.445,1.466-2.355c0.069-0.444-0.018-0.912-0.25-1.288c-0.227-0.377-0.623-0.634-1.054-0.64
					c-0.43-0.015-0.863,0.174-1.184,0.469c-0.327,0.291-0.529,0.701-0.623,1.134c-0.186,0.874,0.002,1.801,0.309,2.633
					c0.632,1.676,1.954,3.037,3.536,3.684c1.574,0.654,3.385,0.672,4.864,0.047c0.718-0.336,1.36-0.893,1.647-1.595
					c0.308-0.698-0.02-1.545-0.686-1.854c-0.652-0.328-1.469-0.284-2.086,0.063c-0.635,0.348-1.109,0.918-1.487,1.515
					c-0.736,1.22-1.295,2.495-1.763,3.721c-0.938,2.461-1.447,4.804-1.803,6.866c-0.347,2.066-0.535,3.864-0.675,5.333
					c-0.123,1.462-0.218,2.602-0.284,3.389c-0.031,0.378-0.055,0.671-0.072,0.882C238.399,121.406,238.382,121.507,238.382,121.507z
					"/>
			</g>
			<path style="fill:#263238;" d="M244.713,125.164l-18.307,1.183c-0.759,0.049-1.414-0.526-1.463-1.285l0,0
				c-0.049-0.759,0.526-1.414,1.285-1.463l18.307-1.183c0.759-0.049,1.414,0.526,1.463,1.285l0,0
				C246.047,124.46,245.472,125.115,244.713,125.164z"/>
			<path style="fill:#263238;" d="M244.791,126.364l-18.307,1.183c-0.759,0.049-1.334,0.704-1.285,1.463
				c0.049,0.759,0.704,1.334,1.463,1.285l2.009-0.13l2.994,4.902c0.343,0.561,0.968,0.885,1.623,0.843l6.542-0.423
				c0.662-0.043,1.245-0.453,1.509-1.062l2.264-5.225l1.366-0.088c0.759-0.049,1.334-0.704,1.285-1.463
				C246.204,126.89,245.55,126.315,244.791,126.364z"/>
		</g>
		<g style="opacity:0.2;">
			<path style="fill:#FFFFFF;" d="M216.693,79.179c1.538-1.616,3.184-2.787,4.663-3.553c1.479-0.77,2.765-1.18,3.679-1.332
				c0.915-0.155,1.444-0.1,1.501,0.091c0.134,0.435-1.668,1.209-4.045,3.029c-2.37,1.784-5.288,4.826-6.9,8.963
				c-1.6,4.142-1.497,8.357-0.95,11.273c0.528,2.948,1.337,4.733,0.944,4.964c-0.171,0.102-0.599-0.214-1.17-0.945
				c-0.572-0.729-1.246-1.898-1.818-3.464c-0.575-1.563-1.001-3.537-1.047-5.768c-0.05-2.226,0.318-4.709,1.248-7.143"/>
		</g>
		<g style="opacity:0.2;">
			<path style="fill:#FFFFFF;" d="M232.454,75.056c-1.543,0.085-2.931-0.248-3.141-1.055c-0.094-0.4,0.163-0.85,0.698-1.223
				c0.532-0.372,1.343-0.657,2.265-0.712c0.922-0.054,1.761,0.132,2.333,0.438c0.576,0.307,0.885,0.723,0.839,1.132"/>
		</g>
		<g>
			<path style="fill:#455A64;" d="M241.025,134.881c-0.019,0.047-0.493-0.134-1.283-0.306c-0.788-0.174-1.905-0.303-3.131-0.191
				c-1.225,0.117-2.299,0.452-3.041,0.769c-0.744,0.316-1.176,0.581-1.203,0.539c-0.019-0.026,0.375-0.358,1.115-0.732
				c0.736-0.375,1.837-0.754,3.102-0.875c1.265-0.116,2.417,0.052,3.21,0.283C240.59,134.599,241.039,134.852,241.025,134.881z"/>
		</g>
		<g>
			<path style="fill:#455A64;" d="M243.645,129.26c0.005,0.082-3.3,0.363-7.382,0.627c-4.083,0.264-7.397,0.411-7.402,0.328
				c-0.005-0.082,3.299-0.363,7.383-0.627C240.326,129.324,243.64,129.177,243.645,129.26z"/>
		</g>
		<g>
			<path style="fill:#455A64;" d="M242.64,131.505c0.005,0.04-0.679,0.158-1.791,0.3c-1.112,0.142-2.651,0.306-4.356,0.441
				c-1.705,0.134-3.252,0.214-4.372,0.247c-1.12,0.034-1.814,0.025-1.816-0.016c-0.002-0.042,0.688-0.108,1.804-0.196
				c1.206-0.092,2.703-0.207,4.36-0.334c1.655-0.134,3.152-0.255,4.357-0.353C241.943,131.506,242.635,131.463,242.64,131.505z"/>
		</g>
	</g>
</g>
<g id="Book">
	<g>
		<path style="fill:#E8505B;" d="M110.799,253.976l3.975,6.369c0,0,16.961-15.608,33.787-11.196
			C148.561,249.149,133.44,236.327,110.799,253.976z"/>
		<path style="fill:#E8505B;" d="M148.561,249.149c0,0,12.45-13.519,30.705-10.435l4.978,0.75l-1.59-2.876
			C182.655,236.588,150.905,225.714,148.561,249.149z"/>
		<g>
			<path style="fill:#F5F5F5;" d="M122.283,203.564c0,0-24.938-4.29-41.295,4.559l25.972,48.9c0,0,21.259-20.492,41.602-7.873
				L122.283,203.564z"/>
			<g>
				<path style="fill:#263238;" d="M122.283,203.564c0.003-0.005,0.048,0.062,0.133,0.199c0.093,0.154,0.216,0.356,0.374,0.616
					c0.336,0.568,0.816,1.38,1.437,2.43c1.26,2.158,3.089,5.289,5.406,9.257c4.646,8.012,11.248,19.399,19.12,32.974
					c0.061,0.105,0.025,0.24-0.08,0.3c-0.072,0.042-0.16,0.037-0.227-0.004c-2.821-1.732-6.062-3.046-9.561-3.67
					c-1.753-0.288-3.559-0.41-5.39-0.374c-1.83,0.074-3.679,0.305-5.522,0.695c-7.366,1.634-14.522,5.634-20.628,11.015
					l-0.214,0.199c-0.099,0.095-0.256,0.092-0.351-0.006c-0.015-0.016-0.031-0.038-0.041-0.056
					c-9.648-18.2-18.59-35.069-25.933-48.92c-0.054-0.097-0.019-0.219,0.078-0.273l0.005-0.003
					c5.719-2.957,11.522-4.239,16.623-4.92c5.124-0.661,9.624-0.683,13.302-0.578c3.681,0.122,6.553,0.418,8.5,0.658
					c0.974,0.118,1.717,0.232,2.216,0.315c0.237,0.042,0.422,0.075,0.566,0.101C122.225,203.544,122.286,203.559,122.283,203.564
					c-0.003,0.004-0.071-0.002-0.196-0.016c-0.144-0.018-0.329-0.04-0.566-0.069c-0.501-0.062-1.246-0.156-2.221-0.255
					c-1.949-0.201-4.818-0.458-8.492-0.545c-3.67-0.069-8.156-0.015-13.252,0.672c-5.072,0.705-10.831,2.01-16.471,4.951
					l0.083-0.275c7.364,13.839,16.334,30.694,26.011,48.879l-0.392-0.062l0.222-0.207c3.078-2.757,6.444-5.068,9.943-6.976
					c3.506-1.891,7.181-3.338,10.919-4.144c1.87-0.393,3.748-0.625,5.609-0.697c1.862-0.034,3.699,0.093,5.483,0.39
					c3.561,0.642,6.856,1.988,9.713,3.753l-0.307,0.297c-7.786-13.586-14.317-24.981-18.912-33
					c-2.278-4.003-4.076-7.163-5.315-9.341c-0.603-1.072-1.069-1.902-1.395-2.483c-0.149-0.272-0.265-0.484-0.353-0.645
					C122.317,203.645,122.279,203.569,122.283,203.564z"/>
			</g>
		</g>
		<g>
			<path style="fill:#F5F5F5;" d="M161.482,193.53c0,0-18.864-12.023-38.879,10.034l26.279,45.585c0,0,5.363-18.502,36.736-12.067
				L161.482,193.53z"/>
			<g>
				<path style="fill:#263238;" d="M161.482,193.53c0.004-0.004,0.046,0.06,0.125,0.191c0.087,0.148,0.2,0.341,0.346,0.59
					c0.31,0.544,0.752,1.319,1.323,2.321c1.159,2.062,2.839,5.051,4.968,8.839c4.264,7.649,10.327,18.523,17.565,31.505
					c0.059,0.105,0.021,0.238-0.084,0.297c-0.045,0.025-0.095,0.033-0.142,0.025l-0.009-0.002c-1.528-0.251-3.085-0.507-4.671-0.768
					c-0.79-0.159-1.599-0.203-2.413-0.268c-0.814-0.065-1.635-0.13-2.462-0.196c-0.827-0.097-1.663-0.077-2.505-0.061
					c-0.842,0.011-1.69,0.021-2.545,0.032c-0.854,0.02-1.704,0.174-2.565,0.254c-0.858,0.109-1.733,0.155-2.579,0.389
					c-0.854,0.193-1.713,0.387-2.578,0.583c-0.836,0.292-1.676,0.586-2.521,0.882c-0.846,0.293-1.624,0.759-2.447,1.132
					c-0.417,0.18-0.799,0.423-1.177,0.675l-1.15,0.737c-0.758,0.506-1.437,1.129-2.153,1.705c-0.63,0.669-1.34,1.273-1.891,2.024
					c-1.179,1.42-2.186,3.057-2.796,4.8l-0.005,0.013c-0.045,0.129-0.187,0.197-0.316,0.152c-0.058-0.02-0.104-0.061-0.133-0.11
					c-0.335-0.58-0.697-1.208-1.059-1.838c-9.292-16.147-17.95-31.194-25.185-43.767c-0.047-0.08-0.033-0.18,0.026-0.245
					c4.444-4.846,9.348-8.544,14.236-10.703c4.877-2.213,9.635-2.764,13.428-2.52c3.818,0.236,6.711,1.166,8.59,1.925
					c0.945,0.381,1.639,0.739,2.101,0.988c0.215,0.126,0.384,0.224,0.515,0.3C161.432,193.488,161.486,193.526,161.482,193.53
					c-0.004,0.004-0.066-0.027-0.181-0.089c-0.134-0.069-0.306-0.157-0.527-0.27c-0.47-0.23-1.171-0.567-2.118-0.927
					c-1.885-0.718-4.77-1.602-8.557-1.801c-3.763-0.206-8.463,0.372-13.277,2.589c-4.825,2.163-9.668,5.846-14.065,10.673
					l0.026-0.245c7.255,12.562,15.936,27.595,25.253,43.728c0.363,0.629,0.725,1.257,1.059,1.838l-0.453,0.055
					c0.653-1.866,1.677-3.507,2.89-4.975c0.567-0.77,1.292-1.389,1.94-2.074c0.732-0.59,1.43-1.227,2.205-1.744l1.176-0.752
					c0.388-0.257,0.779-0.504,1.203-0.688c0.839-0.381,1.635-0.855,2.497-1.152c0.861-0.3,1.717-0.598,2.568-0.894
					c0.878-0.198,1.751-0.394,2.618-0.589c0.861-0.237,1.746-0.282,2.615-0.391c0.872-0.081,1.734-0.234,2.597-0.253
					c0.863-0.009,1.72-0.019,2.571-0.028c0.851-0.015,1.695-0.033,2.528,0.066c0.834,0.068,1.661,0.136,2.482,0.203
					c0.82,0.067,1.637,0.115,2.43,0.276c1.595,0.266,3.162,0.528,4.698,0.785l-0.235,0.32
					c-7.162-13.002-13.162-23.893-17.382-31.554c-2.087-3.819-3.733-6.833-4.869-8.911c-0.549-1.02-0.975-1.811-1.273-2.365
					c-0.135-0.258-0.24-0.459-0.321-0.613C161.512,193.607,161.478,193.534,161.482,193.53z"/>
			</g>
		</g>
		<g>
			<path style="fill:#F5F5F5;" d="M88.012,184.617l28.124,54.151c0,0,22.857-1,32.531,10.139l-26.064-45.344
				C122.603,203.564,107.319,184.617,88.012,184.617z"/>
			<g>
				<path style="fill:#263238;" d="M88.012,184.617c0,0,0.232,0.004,0.713,0.023c0.511,0.021,1.234,0.05,2.168,0.089
					c0.239,0.014,0.496,0.017,0.76,0.045c0.261,0.043,0.535,0.088,0.821,0.135c0.576,0.096,1.203,0.2,1.88,0.313
					c0.686,0.082,1.391,0.312,2.154,0.514c0.755,0.23,1.587,0.385,2.412,0.714c6.721,2.237,15.735,7.658,23.84,16.986l0.015,0.02
					l0.003,0.006c7.421,12.884,16.404,28.482,26.103,45.321c0.068,0.119,0.028,0.27-0.091,0.339
					c-0.099,0.057-0.221,0.038-0.298-0.039l-0.013-0.013c-0.348-0.346-0.725-0.721-1.103-1.097
					c-2.092-2.028-4.568-3.628-7.199-4.758c-2.617-1.156-5.32-2.05-8.045-2.636c-5.436-1.221-10.861-1.681-15.986-1.579l-0.006,0
					c-0.091,0.002-0.171-0.049-0.21-0.125c-8.199-15.899-15.203-29.481-20.168-39.11c-2.449-4.771-4.395-8.562-5.739-11.181
					c-0.653-1.278-1.159-2.27-1.512-2.961c-0.162-0.321-0.287-0.57-0.381-0.757C88.046,184.698,88.006,184.614,88.012,184.617
					c0.006,0.003,0.057,0.095,0.152,0.27c0.103,0.192,0.239,0.447,0.415,0.776c0.369,0.699,0.898,1.7,1.579,2.992
					c1.377,2.62,3.37,6.413,5.879,11.188c4.999,9.557,12.051,23.038,20.306,38.818l-0.216-0.125
					c5.184-0.113,10.623,0.341,16.115,1.567c2.75,0.588,5.484,1.489,8.14,2.661c2.668,1.145,5.197,2.773,7.343,4.854
					c0.387,0.386,0.774,0.771,1.131,1.126l-0.403,0.286c-9.67-16.856-18.627-32.469-26.026-45.365l0.018,0.026
					c-3.959-4.654-8.275-8.299-12.31-11.139c-4.073-2.799-7.947-4.745-11.289-5.883c-0.818-0.335-1.642-0.497-2.39-0.735
					c-0.756-0.21-1.456-0.448-2.136-0.538c-0.672-0.122-1.295-0.235-1.866-0.339c-0.285-0.052-0.557-0.102-0.816-0.149
					c-0.258-0.032-0.503-0.039-0.734-0.059C89.186,184.712,88.388,184.647,88.012,184.617z"/>
			</g>
		</g>
	</g>
</g>
<g id="Stars">
	<g>
		<g>
			<g>
				<g>
					<path style="fill:#E8505B;" d="M175.798,338.199l0.604,1.003c0.678,1.126,1.664,2.035,2.842,2.617l1.05,0.519l-1.004,0.604
						c-1.126,0.678-2.035,1.664-2.617,2.842l-0.519,1.05l-0.604-1.003c-0.678-1.126-1.664-2.035-2.842-2.617l-1.05-0.519
						l1.003-0.604c1.126-0.678,2.035-1.664,2.617-2.842L175.798,338.199z"/>
				</g>
			</g>
		</g>
	</g>
	<g>
		<g>
			<g>
				<g>
					<path style="fill:#E8505B;" d="M120.355,131.934l0.604,1.003c0.678,1.126,1.664,2.035,2.842,2.617l1.05,0.519l-1.003,0.604
						c-1.126,0.678-2.035,1.664-2.618,2.842l-0.519,1.05l-0.604-1.003c-0.678-1.126-1.664-2.035-2.842-2.617l-1.05-0.519
						l1.004-0.604c1.126-0.678,2.035-1.664,2.617-2.842L120.355,131.934z"/>
				</g>
			</g>
		</g>
	</g>
	<g>
		<g>
			<g>
				<g>
					<path style="fill:#E8505B;" d="M376.941,167.521l0.604,1.004c0.678,1.126,1.664,2.035,2.842,2.617l1.05,0.519l-1.003,0.604
						c-1.126,0.678-2.035,1.664-2.618,2.842l-0.519,1.05l-0.604-1.003c-0.678-1.126-1.664-2.035-2.842-2.617l-1.05-0.519
						l1.003-0.604c1.126-0.678,2.035-1.664,2.617-2.842L376.941,167.521z"/>
				</g>
			</g>
		</g>
	</g>
	<g>
		<g>
			<g>
				<g>
					<path style="fill:#E8505B;" d="M346.64,351.153l0.604,1.004c0.678,1.126,1.664,2.035,2.842,2.617l1.05,0.519l-1.003,0.604
						c-1.126,0.678-2.035,1.664-2.617,2.842l-0.519,1.05l-0.604-1.003c-0.678-1.126-1.664-2.035-2.842-2.618l-1.05-0.519
						l1.004-0.604c1.126-0.678,2.035-1.664,2.617-2.842L346.64,351.153z"/>
				</g>
			</g>
		</g>
	</g>
	<g>
		<g>
			<g>
				<g>
					<path style="fill:#E8505B;" d="M352.408,389.743l0.289,0.116c0.324,0.13,0.679,0.165,1.023,0.1l0.306-0.058l-0.116,0.289
						c-0.13,0.324-0.165,0.679-0.1,1.023l0.058,0.306l-0.289-0.116c-0.324-0.13-0.68-0.165-1.023-0.1l-0.306,0.058l0.116-0.289
						c0.131-0.324,0.165-0.68,0.1-1.023L352.408,389.743z"/>
				</g>
			</g>
		</g>
	</g>
	<g>
		<g>
			<g>
				<g>
					<path style="fill:#E8505B;" d="M369.855,128.811l0.289,0.116c0.324,0.131,0.679,0.165,1.023,0.1l0.306-0.058l-0.116,0.289
						c-0.13,0.324-0.165,0.68-0.1,1.023l0.058,0.306l-0.289-0.116c-0.324-0.131-0.68-0.165-1.023-0.1l-0.306,0.058l0.116-0.289
						c0.13-0.325,0.165-0.679,0.1-1.023L369.855,128.811z"/>
				</g>
			</g>
		</g>
	</g>
	<g>
		<g>
			<g>
				<g>
					<path style="fill:#E8505B;" d="M131.63,104.987l0.289,0.116c0.324,0.13,0.679,0.165,1.023,0.1l0.306-0.058l-0.116,0.289
						c-0.13,0.324-0.165,0.68-0.1,1.023l0.058,0.306l-0.289-0.116c-0.325-0.131-0.68-0.165-1.023-0.1l-0.306,0.058l0.116-0.289
						c0.131-0.324,0.165-0.679,0.1-1.023L131.63,104.987z"/>
				</g>
			</g>
		</g>
	</g>
	<g>
		<g>
			<g>
				<g>
					<path style="fill:#E8505B;" d="M161.031,308.158l0.289,0.116c0.324,0.13,0.68,0.165,1.023,0.1l0.306-0.058l-0.116,0.289
						c-0.131,0.324-0.165,0.68-0.1,1.023l0.058,0.306l-0.289-0.116c-0.324-0.131-0.68-0.165-1.023-0.1l-0.306,0.058l0.116-0.289
						c0.13-0.324,0.165-0.679,0.1-1.023L161.031,308.158z"/>
				</g>
			</g>
		</g>
	</g>
	<g>
		<g>
			<g>
				<g>
					<g>
						<g>
							<path style="fill:#E8505B;" d="M192.906,386.69c0,0-0.087,0.104-0.273,0.292c-0.201,0.199-0.476,0.473-0.831,0.825
								c-0.753,0.733-1.838,1.79-3.231,3.147c-2.837,2.736-6.924,6.678-11.987,11.562l0.047-0.118
								c0.57,12.548,1.344,29.602,2.206,48.568l0.02,0.429l-0.358-0.239c-1.375-0.919-2.846-1.902-4.328-2.893
								c-9.874-6.61-19.22-12.867-27.445-18.374l-0.056-0.037l-0.021-0.063c-4.095-12.229-7.549-22.544-9.987-29.823
								c-1.197-3.62-2.145-6.484-2.8-8.464c-0.313-0.967-0.556-1.718-0.726-2.246c-0.075-0.243-0.134-0.433-0.179-0.58
								c-0.039-0.131-0.056-0.198-0.051-0.2c0.005-0.002,0.032,0.062,0.081,0.189c0.053,0.144,0.121,0.33,0.209,0.57
								c0.184,0.524,0.446,1.268,0.784,2.227c0.679,1.971,1.662,4.824,2.904,8.429c2.474,7.267,5.98,17.565,10.136,29.773
								l-0.077-0.1c8.232,5.496,17.587,11.741,27.469,18.338c1.482,0.991,2.953,1.975,4.328,2.894l-0.338,0.19
								c-0.812-18.968-1.543-36.024-2.08-48.574l-0.003-0.07l0.051-0.048c5.104-4.841,9.223-8.749,12.083-11.461
								c1.417-1.331,2.522-2.369,3.288-3.088c0.368-0.339,0.653-0.602,0.861-0.794C192.798,386.772,192.906,386.69,192.906,386.69z"
								/>
						</g>
					</g>
				</g>
			</g>
		</g>
		<g>
			<g>
				<g>
					<g>
						<polygon style="fill:#E8505B;" points="180.13,445.254 180.043,448.085 182.326,449.763 179.606,450.554 178.716,453.244 
							177.123,450.901 174.29,450.886 176.025,448.647 175.164,445.948 177.83,446.907 						"/>
					</g>
				</g>
			</g>
		</g>
		<g>
			<g>
				<g>
					<g>
						<polygon style="fill:#E8505B;" points="147.071,426.039 147.126,427.871 148.667,428.865 146.941,429.484 146.472,431.256 
							145.35,429.806 143.52,429.908 144.552,428.393 143.89,426.683 145.65,427.197 						"/>
					</g>
				</g>
			</g>
		</g>
		<g>
			<g>
				<g>
					<g>
						<polygon style="fill:#E8505B;" points="132.83,385.112 134.213,386.888 136.459,386.755 135.198,388.618 136.018,390.714 
							133.856,390.09 132.117,391.518 132.042,389.269 130.147,388.056 132.262,387.289 						"/>
					</g>
				</g>
			</g>
		</g>
		<g>
			<g>
				<g>
					<g>
						<polygon style="fill:#E8505B;" points="191.524,383.337 192.906,385.112 195.152,384.98 193.891,386.843 194.711,388.939 
							192.549,388.315 190.81,389.742 190.735,387.493 188.84,386.28 190.955,385.514 						"/>
					</g>
				</g>
			</g>
		</g>
		<g>
			<g>
				<g>
					<g>
						<polygon style="fill:#E8505B;" points="176.115,400.483 176.998,401.616 178.431,401.531 177.626,402.721 178.15,404.058 
							176.77,403.66 175.66,404.571 175.612,403.136 174.403,402.362 175.753,401.872 						"/>
					</g>
				</g>
			</g>
		</g>
	</g>
</g>
<g id="Planets">
	<g>
		<g>
			<g>
				<g>
					<g>
						<g>
							<circle style="fill:#E8505B;" cx="123.192" cy="304.909" r="19.945"/>
						</g>
					</g>
				</g>
			</g>
			<g style="opacity:0.3;">
				<g>
					<g>
						<g>
							<path style="fill:#FFFFFF;" d="M120.6,311.135c0,1.797-1.456,3.253-3.253,3.253s-3.253-1.456-3.253-3.253
								c0-1.796,1.456-3.253,3.253-3.253S120.6,309.338,120.6,311.135z"/>
						</g>
					</g>
				</g>
			</g>
			<g style="opacity:0.3;">
				<g>
					<g>
						<g>
							<path style="fill:#FFFFFF;" d="M115.986,301.748c0,1.045-0.847,1.892-1.892,1.892c-1.045,0-1.892-0.847-1.892-1.892
								c0-1.045,0.847-1.892,1.892-1.892C115.139,299.856,115.986,300.703,115.986,301.748z"/>
						</g>
					</g>
				</g>
			</g>
		</g>
		<g>
			<g>
				<g>
					<g>
						<path style="fill:#E8505B;" d="M103.844,309.76c0.089,0.346-17.07,16.81-12.647,20.318c4.423,3.508,23.03-5.491,38.891-18.302
							c15.861-12.811,30.35-28.368,26.385-32.486c-3.965-4.118-23.788,8.074-23.788,8.074l2.369,1.51c0,0,11.985-7.689,15.776-4.705
							c3.791,2.985-7.016,14.641-22.267,25.775c-15.251,11.134-29.988,18.949-32.275,15.899c-2.288-3.05,8.507-13.225,8.507-13.225
							L103.844,309.76z"/>
					</g>
				</g>
			</g>
		</g>
		<g style="opacity:0.3;">
			<g>
				<g>
					<g>
						<path d="M103.844,309.76c0.089,0.346-17.07,16.81-12.647,20.318c4.423,3.508,23.03-5.491,38.891-18.302
							c15.861-12.811,30.35-28.368,26.385-32.486c-3.965-4.118-23.788,8.074-23.788,8.074l2.369,1.51c0,0,11.985-7.689,15.776-4.705
							c3.791,2.985-7.016,14.641-22.267,25.775c-15.251,11.134-29.988,18.949-32.275,15.899c-2.288-3.05,8.507-13.225,8.507-13.225
							L103.844,309.76z"/>
					</g>
				</g>
			</g>
		</g>
		<g style="opacity:0.3;">
			<g>
				<g>
					<g>
						<g>
							<path style="fill:#FFFFFF;" d="M112.202,290.86c0.161,0.192-1.191,1.34-2.721,3.643c-1.531,2.268-3.132,5.859-3.22,10.024
								c-0.078,4.167,1.379,7.82,2.818,10.147c1.437,2.362,2.742,3.562,2.573,3.748c-0.101,0.139-1.704-0.786-3.478-3.138
								c-0.883-1.167-1.763-2.701-2.422-4.539c-0.661-1.833-1.069-3.98-1.035-6.249c0.057-2.267,0.55-4.395,1.283-6.201
								c0.732-1.81,1.672-3.307,2.601-4.439C110.467,291.579,112.106,290.717,112.202,290.86z"/>
						</g>
					</g>
				</g>
			</g>
		</g>
	</g>
	<g>
		<g>
			<g>
				<g>
					<g>
						
							<ellipse transform="matrix(0.722 -0.6919 0.6919 0.722 13.6297 270.1212)" style="fill:#E8505B;" cx="342.967" cy="118.099" rx="16.452" ry="16.452"/>
					</g>
				</g>
			</g>
		</g>
		<g style="opacity:0.4;">
			<g>
				<g>
					<g>
						<path d="M348.328,111.798c0.035-1.482,1.265-2.654,2.746-2.619c1.482,0.035,2.654,1.265,2.619,2.746
							c-0.035,1.481-1.265,2.654-2.746,2.619C349.465,114.509,348.293,113.279,348.328,111.798z"/>
					</g>
				</g>
			</g>
		</g>
		<g style="opacity:0.4;">
			<g>
				<g>
					<g>
						<path d="M353.694,118.062c0.02-0.862,0.736-1.544,1.598-1.524c0.862,0.02,1.544,0.736,1.523,1.598
							c-0.02,0.862-0.736,1.544-1.597,1.523C354.356,119.639,353.674,118.924,353.694,118.062z"/>
					</g>
				</g>
			</g>
		</g>
		<g style="opacity:0.4;">
			<g>
				<g>
					<g>
						<path d="M351.6,122.855c0.318,0.008,0.569,0.271,0.562,0.589c-0.008,0.318-0.271,0.569-0.589,0.562
							c-0.318-0.008-0.569-0.271-0.562-0.589C351.018,123.099,351.282,122.848,351.6,122.855z"/>
					</g>
				</g>
			</g>
		</g>
	</g>
</g>
</svg>
