<?xml version="1.0" encoding="utf-8"?>
<!-- Generator: Adobe Illustrator 27.5.0, SVG Export Plug-In . SVG Version: 6.00 Build 0)  -->
<svg version="1.1" xmlns="http://www.w3.org/2000/svg" xmlns:xlink="http://www.w3.org/1999/xlink" x="0px" y="0px"
	 viewBox="0 0 750 500" style="enable-background:new 0 0 750 500;" xml:space="preserve">
<g id="BACKGROUND">
	<rect style="fill:#FFFFFF;" width="750" height="500"/>
</g>
<g id="OBJECTS">
	<ellipse style="fill:#DAE6F0;" cx="375" cy="429.661" rx="325.069" ry="25.965"/>
	<g>
		
			<ellipse transform="matrix(0.7071 -0.7071 0.7071 0.7071 -115.9968 156.8987)" style="fill:none;stroke:#263F5C;stroke-linecap:round;stroke-miterlimit:10;stroke-dasharray:5,5,5;" cx="131.395" cy="218.47" rx="88.947" ry="88.947"/>
		
			<ellipse transform="matrix(0.7071 -0.7071 0.7071 0.7071 -41.6719 529.7301)" style="fill:none;stroke:#263F5C;stroke-linecap:round;stroke-miterlimit:10;stroke-dasharray:5,5,5;" cx="618.605" cy="315.168" rx="88.947" ry="88.947"/>
	</g>
	<g>
		<path style="fill:#E8AC29;" d="M392.731,137.835c0-20.312-16.366-36.802-36.631-37.002c-19.926-0.197-36.658,15.764-37.353,35.679
			c-0.328,9.389,2.846,18.026,8.315,24.716c7.962,9.739,15.111,20.116,20.695,31.388l1.179,2.38h6.791h6.791l1.182-2.386
			c5.527-11.156,12.47-21.531,20.448-31.087C389.506,155.107,392.731,146.849,392.731,137.835z"/>
		<path style="fill:#0C143B;" d="M359.83,204.324h-8.205c-1.501,0-2.718-1.217-2.718-2.718l0,0c0-1.501,1.217-2.718,2.718-2.718
			h8.205c1.501,0,2.718,1.217,2.718,2.718l0,0C362.548,203.107,361.331,204.324,359.83,204.324z"/>
		<path style="fill:none;stroke:#FFFFFF;stroke-miterlimit:10;" d="M357.908,192.383c0,0-0.475-39.63,10.218-44.469
			c10.481-4.743,10.803,16.852-9.664,19.052c-0.842,0.09-1.691,0.109-2.537,0.109h-0.395c-0.846,0-1.695-0.019-2.537-0.109
			c-20.467-2.2-20.145-23.795-9.664-19.052c10.693,4.838,10.218,44.469,10.218,44.469"/>
		<path style="fill:#0C143B;" d="M363.747,196.601h-16.04c-1.501,0-2.718-1.217-2.718-2.718l0,0c0-1.501,1.217-2.718,2.718-2.718
			h16.04c1.501,0,2.718,1.217,2.718,2.718l0,0C366.465,195.384,365.248,196.601,363.747,196.601z"/>
		<path style="fill:#F1CB6F;" d="M334.784,114.814c-5.565,5.861-6.723,13.796-2.587,17.724c4.136,3.927,12.001,2.36,17.566-3.502
			c5.565-5.861,6.723-13.796,2.587-17.724C348.214,107.385,340.349,108.953,334.784,114.814z"/>
	</g>
	<g>
		<path style="fill:#85BEC3;" d="M346.226,268.284v-70.231h-61.607c0-29.907-24.245-54.152-54.152-54.152
			c-29.907,0-54.152,24.245-54.152,54.152h-61.607v70.231c29.907,0,54.152,24.245,54.152,54.152s-24.244,54.152-54.152,54.152
			v52.983h231.517v-52.983c-29.907,0-54.152-24.245-54.152-54.152S316.319,268.284,346.226,268.284z"/>
		<path style="fill:#4C8688;" d="M620.238,268.284v-70.231h-61.607c0-29.907-24.244-54.152-54.151-54.152
			c-29.907,0-54.152,24.245-54.152,54.152h-61.607v70.231c-29.907,0-54.152,24.245-54.152,54.152s24.245,54.152,54.152,54.152
			v52.983h61.656c-0.023-0.652-0.049-1.303-0.049-1.961c0-29.907,24.245-54.152,54.152-54.152c29.907,0,54.151,24.245,54.151,54.152
			c0,0.658-0.026,1.309-0.049,1.961h61.656v-52.983c-29.907,0-54.152-24.245-54.152-54.152S590.331,268.284,620.238,268.284z"/>
		<path style="fill:#FFFFFF;" d="M550.388,305.208v-24.315h-16.701c-1.147-5.429-3.145-10.54-5.839-15.201l12.273-12.273
			l-17.193-17.193l-11.817,11.817c-4.521-2.944-9.524-5.206-14.869-6.638v-17.347h-24.315v16.701
			c-5.429,1.147-10.54,3.145-15.201,5.839l-12.273-12.273l-17.194,17.193l11.817,11.817c-2.944,4.521-5.206,9.524-6.638,14.869
			h-17.347v24.315h16.701c1.147,5.429,3.145,10.54,5.839,15.201l-12.273,12.273l17.193,17.194l11.818-11.817
			c4.521,2.944,9.524,5.206,14.869,6.638v17.347h24.315v-16.701c5.429-1.147,10.54-3.145,15.201-5.839l12.273,12.273l17.193-17.194
			l-11.817-11.817c2.944-4.521,5.206-9.524,6.638-14.869H550.388z M482.739,318.419c-14.753,0-26.713-11.96-26.713-26.713
			s11.96-26.713,26.713-26.713c14.753,0,26.713,11.96,26.713,26.713S497.492,318.419,482.739,318.419z"/>
	</g>
	<g>
		<path style="fill:#80AECC;" d="M479.338,137.053l7.747-13.786l-9.469-5.321c1.08-3.443,1.575-6.978,1.533-10.479l10.869-3.048
			l-4.27-15.227l-10.465,2.935c-1.625-3.11-3.741-5.986-6.316-8.501l5.527-9.835l-13.786-7.747l-5.321,9.469
			c-3.444-1.08-6.978-1.575-10.479-1.533l-3.048-10.869l-15.227,4.27l2.935,10.465c-3.109,1.626-5.986,3.741-8.501,6.316
			l-9.836-5.527l-7.747,13.786l9.469,5.321c-1.08,3.443-1.575,6.978-1.533,10.479l-10.869,3.048l4.27,15.227l10.466-2.935
			c1.625,3.11,3.741,5.986,6.316,8.501l-5.527,9.835l13.786,7.747l5.321-9.469c3.443,1.08,6.978,1.575,10.479,1.533l3.048,10.869
			l15.227-4.27l-2.935-10.465c3.109-1.625,5.986-3.741,8.501-6.316L479.338,137.053z M436.773,122.99
			c-8.365-4.701-11.335-15.292-6.635-23.657c4.701-8.365,15.292-11.335,23.657-6.634c8.365,4.701,11.335,15.292,6.634,23.657
			C455.729,124.72,445.138,127.69,436.773,122.99z"/>
		<path style="fill:#4C8688;" d="M639.859,163.272l5.223-14.927l-10.252-3.587c0.462-3.579,0.333-7.146-0.319-10.586l10.17-4.898
			l-6.861-14.248l-9.793,4.716c-2.143-2.778-4.728-5.242-7.702-7.269l3.726-10.649l-14.926-5.223l-3.588,10.252
			c-3.579-0.462-7.146-0.334-10.586,0.319l-4.898-10.171l-14.248,6.861l4.716,9.793c-2.778,2.143-5.242,4.728-7.269,7.702
			l-10.649-3.726l-5.223,14.927l10.252,3.588c-0.462,3.579-0.333,7.146,0.319,10.586l-10.17,4.898l6.861,14.248l9.793-4.716
			c2.143,2.778,4.728,5.242,7.702,7.269l-3.726,10.649l14.927,5.223l3.587-10.252c3.579,0.462,7.146,0.334,10.586-0.319
			l4.898,10.171l14.248-6.862l-4.716-9.793c2.778-2.143,5.242-4.728,7.269-7.702L639.859,163.272z M595.493,156.85
			c-9.057-3.169-13.829-13.08-10.66-22.137c3.169-9.057,13.08-13.829,22.137-10.66c9.057,3.169,13.829,13.08,10.66,22.137
			C614.461,155.246,604.55,160.019,595.493,156.85z"/>
	</g>
	<g>
		<path style="fill:#477DA1;" d="M426.825,226.567c0,0,20.649,1.558,30.81-0.126c0,0-1.591,5.922-16.243,5.875
			C426.74,232.268,426.825,226.567,426.825,226.567z"/>
		<g>
			<path style="fill:#934545;" d="M470.017,238.398c0.262,9.72,0.833,24.862,2.034,37.465c0,0,31.032-5.994,42.645-6.02
				l-0.267,5.012c0,0-29.626,17.538-50.27,16.444c-2.877-0.152-5.416-1.915-6.69-4.498c-2.951-5.98-4.717-19.482-5.087-47.711
				c-0.075-5.687,1.732-10.584,7.42-10.597l0,0C465.332,228.48,469.869,232.869,470.017,238.398z"/>
			<path style="fill:#934545;" d="M508.125,271.681c0,0-1.295-4.026,2.443-6.081c3.738-2.055,4.609-6.573,6.726-6.694
				c1.75-0.1,1.377,2.832,0.233,4.747c-0.837,1.402-2.59,2.51-2.179,2.646c0.411,0.136,3.064,0.473,4.463-0.063
				c1.589-0.61,9.307-4.267,9.638-4.479c2.475-1.59,3.057-0.227,3.057-0.227c1.204,1.848-3.814,4.511-5.202,5.27
				c-2.093,1.145-5.705,2.787-5.705,2.787l0.087,0.352c0,0,12.727-1.466,13.389-1.535c1.123-0.117,1.535,0.603,1.588,0.933
				c0.082,0.503-0.182,1.284-1.566,1.762c-2.09,0.724-9.557,2.879-12.648,3.081c0,0,7.281-0.139,10.057,0.624
				c0.921,0.253,2.412,0.634,2.215,1.714c-0.225,1.232-2.424,1.136-2.763,1.148c-2.311,0.078-7.748-0.009-10.139-0.469l-0.22,0.401
				c0,0,7.449-0.518,7.378,1.561c-0.043,1.259-1.584,0.952-2.079,0.921c-1.905-0.118-8.145,0.251-8.973,0.265
				c-1.944,0.033-5.565-0.218-7.89-2.273C506.729,275.149,508.125,271.681,508.125,271.681z"/>
		</g>
		<g>
			<path style="fill:#874545;" d="M432.414,198.881c2.127,2.858,2.743,7.661,0.376,9.386c-2.367,1.724-6.821-0.285-8.948-3.142
				c-2.127-2.858-1.932-6.572,0.435-8.296C426.644,195.104,430.287,196.023,432.414,198.881z"/>
			<g>
				<g>
					<path style="fill:#0C143B;" d="M430.165,203.169c-0.328-0.429-0.735-0.806-1.156-1.141c-0.911-0.726-1.969-1.26-3.119-1.475
						c-0.198-0.037-0.283,0.267-0.084,0.304c1.109,0.207,2.14,0.716,3.016,1.423c0.283,0.228,0.551,0.474,0.799,0.739
						c0.073,0.078,0.145,0.158,0.214,0.239c0.016,0.02,0.105,0.131,0.058,0.07C430.014,203.487,430.288,203.33,430.165,203.169
						L430.165,203.169z"/>
				</g>
			</g>
		</g>
		<path style="fill:#B53E27;" d="M468.985,301.752l-20.357,0.484v-0.484l-28.62,0.592c-14.382,14.288-5.839,136.112-5.839,136.112
			l13.314-0.155c11.619-72.562,16.658-109.921,16.658-109.921l1.189,0.023v0l1.984,0.039c0,0,5.094,51.26,3.506,109.907
			l13.526-0.048C464.347,438.302,485.828,348.838,468.985,301.752z"/>
		<path style="fill:#822316;" d="M448.628,302.237v-0.484l-28.62,0.592c-1.843,1.831-3.308,5.439-4.465,10.322
			c16.743,11.389,39.906,10.478,56.452-0.339c-0.829-3.704-1.821-7.248-3.011-10.575L448.628,302.237z"/>
		<path style="fill:#B26666;" d="M460.407,233.686c-14.86-4.582-10.807-19.759-10.807-19.759h-14.764
			c0,0,4.053,15.177-10.807,19.759c-0.926,0.286-1.799,0.572-2.636,0.861c11.79,11.668,31.104,8.75,41.602,0.184
			c0.006-0.066,0.015-0.132,0.021-0.198C462.188,234.249,461.32,233.967,460.407,233.686z"/>
		<g>
			<path style="fill:#874545;" d="M435.32,217.525c-0.096-2.144-0.484-3.598-0.484-3.598l6.851-0.827v-0.128l0.531,0.064
				l0.531-0.064v0.128l6.851,0.827c0,0-0.662,2.479-0.47,5.736C447.627,222.699,442.218,226.909,435.32,217.525z"/>
		</g>
		<path style="fill:#B26666;" d="M459.505,189.155c0.622,6.196,1.14,19.544-4.694,25.369c-7.671,7.66-20.939,3.126-24.172-4.725
			c-2.79-6.776-2.779-19.189,2.099-27.348c2.528-4.228,7.837-7.301,14.36-6.971C456.778,175.971,459.309,187.203,459.505,189.155z"
			/>
		<g>
			<g>
				<path style="fill:#0C143B;" d="M446.793,191.514c0.089,1.753,0.177,3.505,0.266,5.258c0.066,1.295,0.131,2.59,0.197,3.885
					c0.026,0.505,0.051,1.01,0.077,1.516c0.014,0.271-0.034,0.647,0.046,0.909c0.013,0.041-0.015,0.121,0.008,0.158
					c-0.121-0.194,0.266-0.12-0.063-0.116c-0.125,0.002-0.269,0.052-0.391,0.076c-0.564,0.109-1.127,0.218-1.691,0.327
					c-0.199,0.038-0.115,0.342,0.084,0.304c0.753-0.146,1.507-0.291,2.26-0.437c0.065-0.012,0.119-0.087,0.116-0.152
					c-0.173-3.422-0.346-6.844-0.52-10.266c-0.025-0.487-0.049-0.974-0.074-1.461C447.098,191.312,446.783,191.311,446.793,191.514
					L446.793,191.514z"/>
			</g>
		</g>
		<g>
			<path style="fill:#874545;" d="M440.512,204.86c0,1.592-1.496,2.883-3.34,2.883c-1.845,0-3.341-1.291-3.341-2.883
				c0-1.592,1.496-2.883,3.341-2.883C439.016,201.977,440.512,203.267,440.512,204.86z"/>
		</g>
		<g>
			<path style="fill:#874545;" d="M457.533,204.86c0,1.592-1.496,2.883-3.34,2.883c-1.845,0-3.34-1.291-3.34-2.883
				c0-1.592,1.495-2.883,3.34-2.883C456.038,201.977,457.533,203.267,457.533,204.86z"/>
		</g>
		<path style="fill:#0C143B;" d="M436.222,194.735c0.124,0.641,1.349,0.322,2.88,0.032c1.531-0.289,2.789-0.439,2.665-1.08
			c-0.124-0.641-1.465-0.926-2.996-0.636C437.239,193.34,436.098,194.094,436.222,194.735z"/>
		<path style="fill:#0C143B;" d="M450.349,193.453c-0.127,0.64,1.13,0.796,2.66,1.092c1.53,0.296,2.753,0.621,2.88-0.019
			c0.127-0.64-1.011-1.4-2.54-1.696C451.819,192.534,450.476,192.813,450.349,193.453z"/>
		<path style="fill:#61ABEC;" d="M469.819,246.276c-0.483-5.477-1.705-10.768-4.692-15.371c-2.948-1.23-5.782-2.87-7.985-4.338
			c-9.361,3.663-21.09,3.937-30.318,0c-2.507,1.69-5.132,3.256-7.761,4.338c-2.987,4.602-4.209,9.893-4.692,15.371
			c-0.569,6.449-4.14,60.051-4.14,60.051c8.61,5.582,20.399,7.475,31.194,7.796h1.341c10.794-0.322,22.78-2.263,31.39-7.845
			c0,0-1.84-26.821-3.145-44.786C470.47,254.042,469.986,248.166,469.819,246.276z"/>
		<path style="opacity:0.4;fill:#477DA1;" d="M412.387,274.327c-1.07,15.703-2.156,31.999-2.156,31.999
			c8.61,5.582,20.399,7.475,31.194,7.796h1.341c10.794-0.322,22.78-2.263,31.39-7.845c0,0-1.255-18.285-2.427-34.774
			C454.358,283.372,430.17,285,412.387,274.327z"/>
		<path style="fill:#0C143B;" d="M439.448,199.365c0,0.977,0.476,1.769,1.064,1.769c0.587,0,1.064-0.792,1.064-1.769
			c0-0.977-0.476-1.769-1.064-1.769C439.924,197.596,439.448,198.388,439.448,199.365z"/>
		<path style="fill:#0C143B;" d="M450.341,199.365c0,0.977,0.476,1.769,1.064,1.769s1.064-0.792,1.064-1.769
			c0-0.977-0.476-1.769-1.064-1.769S450.341,198.388,450.341,199.365z"/>
		<path style="fill:#61ABEC;" d="M475.598,254.615c0,0-0.527,5.305-9.913,8.258l-10.474-20.515l1.933-15.79
			C457.142,226.567,472.548,221.26,475.598,254.615z"/>
		<g>
			<g>
				<path style="fill:#0E1325;" d="M485.751,446.465c-5.693-4.607-18.842-7.45-18.842-7.45l-2.563-0.713
					c-5.404,0.008-8.121,0.025-13.526,0.048c0.314,5.562,0.598,9.913,0.753,10.651c0.388,1.845,23.693,1.322,32.946,1.042
					C486.405,449.986,487.211,447.646,485.751,446.465z"/>
			</g>
		</g>
		<g>
			<g>
				<path style="fill:#0E1325;" d="M430.251,439.015l-2.769-0.713c-5.395,0.017-7.918,0.146-13.313,0.155
					c0.311,5.511,0.593,9.81,0.747,10.544c0.388,1.845,23.693,1.322,32.946,1.042c1.884-0.057,2.69-2.397,1.231-3.578
					C443.4,441.858,430.251,439.015,430.251,439.015z"/>
			</g>
		</g>
		<path style="fill:#874545;" d="M446.919,211.927c0,0.155-0.3,0.281-0.671,0.281c-0.371,0-0.671-0.126-0.671-0.281
			c0-0.155,0.3-0.281,0.671-0.281C446.619,211.646,446.919,211.771,446.919,211.927z"/>
		<g>
			<path style="fill:#6D2D25;" d="M450.189,205.44c0,0-3.973,1.913-7.852-0.2c0,0-0.603,3.966,3.44,4.35
				C450.441,210.032,450.189,205.44,450.189,205.44z"/>
			<g>
				<defs>
					<path id="SVGID_1_" d="M450.189,205.44c0,0-3.973,1.913-7.852-0.2c0,0-0.603,3.966,3.44,4.35
						C450.441,210.032,450.189,205.44,450.189,205.44z"/>
				</defs>
				<clipPath id="SVGID_00000116938256507731607940000000940514099941820854_">
					<use xlink:href="#SVGID_1_"  style="overflow:visible;"/>
				</clipPath>
				<path style="clip-path:url(#SVGID_00000116938256507731607940000000940514099941820854_);fill:#D57F6D;" d="M449.187,209.988
					c0,0-0.513-1.927-3.198-1.892c-2.685,0.036-3.792,1.859-3.792,1.859S445.655,213.061,449.187,209.988z"/>
				<path style="clip-path:url(#SVGID_00000116938256507731607940000000940514099941820854_);fill:#FFFFFF;" d="M442.965,205.256
					c0,0-0.207,1.6,3.349,1.683c3.556,0.082,3.144-1.738,3.144-1.738L442.965,205.256z"/>
			</g>
		</g>
		<path style="fill:#477DA1;" d="M470.938,260.844l-1.867-16.279C469.071,244.565,468.215,256.943,470.938,260.844z"/>
		<g>
			<polygon style="fill:#0D0B47;" points="456.528,270.345 524.725,264.993 529.014,267.821 480.106,272.553 			"/>
			<rect x="456.528" y="270.345" style="fill:#171176;" width="87.152" height="4.416"/>
			<rect x="483.538" y="225.465" style="fill:#171176;" width="63.029" height="49.296"/>
			<rect x="486.548" y="225.465" style="fill:#2B2AA9;" width="62.047" height="49.296"/>
			<path style="fill:#4B4BCB;" d="M548.595,243.178v-17.713h-62.047v11.397C504.042,251.112,529.244,253.962,548.595,243.178z"/>
		</g>
		<g>
			<path style="fill:#B26666;" d="M429.903,279.832c-1.201-12.603-1.773-27.745-2.034-37.465c-0.121-4.493-3.14-8.234-7.236-9.471
				c-3.279,3.442-6.647,7.114-10.397,10.325c0.375,28.117,2.14,41.58,5.085,47.549c1.274,2.583,3.814,4.345,6.69,4.498
				c20.644,1.095,50.27-16.444,50.27-16.444l0.267-5.012C460.936,273.838,429.903,279.832,429.903,279.832z"/>
			<path style="fill:#B26666;" d="M465.977,275.65c0,0-1.295-4.026,2.443-6.081c3.738-2.055,4.609-6.573,6.726-6.694
				c1.75-0.1,1.377,2.832,0.233,4.747c-0.837,1.402-2.59,2.51-2.179,2.646c0.411,0.136,3.064,0.473,4.463-0.063
				c1.589-0.61,9.307-4.267,9.638-4.479c2.475-1.59,3.057-0.227,3.057-0.227c1.204,1.848-3.814,4.511-5.202,5.27
				c-2.093,1.146-5.705,2.787-5.705,2.787l0.087,0.352c0,0,12.727-1.466,13.389-1.535c1.123-0.117,1.534,0.603,1.588,0.933
				c0.082,0.503-0.182,1.284-1.566,1.762c-2.09,0.724-9.557,2.879-12.648,3.081c0,0,7.282-0.139,10.057,0.624
				c0.921,0.253,2.412,0.634,2.215,1.714c-0.225,1.232-2.424,1.137-2.763,1.148c-2.311,0.078-7.748-0.009-10.139-0.469l-0.22,0.401
				c0,0,5.016,4.343,6.542,5.465c0.147,0.108,0.896,0.625,0.573,1.359c-0.508,1.153-1.595,0.556-1.824,0.444
				c-1.135-0.553-4.773-2.365-6.673-3.763c-0.666-0.49-1.465-0.772-2.292-0.758c-1.944,0.033-5.565-0.218-7.89-2.273
				C464.581,279.118,465.977,275.65,465.977,275.65z"/>
		</g>
		<path style="fill:#61ABEC;" d="M407.37,261.701c0,0,3.966,8.643,25.701,5.387l-4.314-24.731l-1.933-15.79
			C426.825,226.567,403.024,233.402,407.37,261.701z"/>
		<path style="fill:#477DA1;" d="M428.957,267.586l-0.458-18.948C428.499,248.637,432.221,260.844,428.957,267.586z"/>
		<circle style="fill:#FFFFFF;" cx="519.809" cy="250.113" r="2.445"/>
		<path style="fill:#0E1325;" d="M425.849,196.104c0,0,2.713-0.219,3.007,5.359c0,0,4.374-3.021,5.452-15.116v6
			c0,0,10.574-2.268,9.724-12.709c0,0,14.099,0.068,15.742,13.074c0,0,4.577-17.231-8.37-19.026c0,0,7.462-1.842,10.155,4.394
			c0,0-1.89-15.449-28.205-5.622c0,0,0.945-2.646,0.189-2.646c-0.756,0-1.559,4.016-1.559,4.016s-2.571-1.89-3.648-1.512
			c-1.077,0.378,2.608,2.929,2.608,2.929s-12.85,3.449-10.441,14.079l3.084,8.133C423.588,197.456,424.844,196.276,425.849,196.104z
			"/>
		<path style="fill:#477DA1;" d="M428.961,229.811c0,0,20.402,6.203,28.674-1.718C457.635,228.094,451.874,239.544,428.961,229.811z
			"/>
	</g>
	<g>
		<g>
			<path style="fill:#979CF9;" d="M363.149,66.08c0,3.148-2.552,5.699-5.699,5.699c-3.148,0-5.699-2.552-5.699-5.699
				c0-3.148,2.552-5.699,5.699-5.699C360.598,60.381,363.149,62.932,363.149,66.08z"/>
			<circle style="fill:#979CF9;" cx="343.656" cy="79.026" r="2.188"/>
			<circle style="fill:#979CF9;" cx="360.181" cy="83.495" r="4.745"/>
		</g>
		<g>
			<path style="fill:#979CF9;" d="M110.063,181.454c0,3.366,2.729,6.094,6.094,6.094c3.366,0,6.095-2.729,6.095-6.094
				s-2.729-6.094-6.095-6.094C112.792,175.36,110.063,178.088,110.063,181.454z"/>
			<path style="fill:#979CF9;" d="M124.949,158.775c0,1.486,1.205,2.691,2.691,2.691c1.486,0,2.691-1.205,2.691-2.691
				c0-1.486-1.205-2.691-2.691-2.691C126.154,156.084,124.949,157.289,124.949,158.775z"/>
			<circle style="fill:#979CF9;" cx="136.355" cy="175.998" r="5.457"/>
		</g>
		<g>
			<path style="fill:#979CF9;" d="M606.65,321.744c0,2.993-2.426,5.419-5.419,5.419c-2.993,0-5.419-2.426-5.419-5.419
				c0-2.993,2.426-5.419,5.419-5.419C604.224,316.325,606.65,318.751,606.65,321.744z"/>
			<path style="fill:#979CF9;" d="M619.057,303.349c0,2.035-1.65,3.685-3.685,3.685c-2.035,0-3.685-1.65-3.685-3.685
				c0-2.035,1.65-3.685,3.685-3.685C617.407,299.664,619.057,301.314,619.057,303.349z"/>
			<path style="fill:#979CF9;" d="M625.657,321.372c0,1.431-1.16,2.591-2.592,2.591c-1.431,0-2.591-1.16-2.591-2.591
				c0-1.431,1.16-2.591,2.591-2.591C624.497,318.78,625.657,319.94,625.657,321.372z"/>
		</g>
	</g>
	<g>
		<g>
			<path style="fill:#263F5C;" d="M536.676,126.337L536.676,126.337c1.392,0,2.531-1.139,2.531-2.531v-13.627
				c0-1.392-1.139-2.531-2.531-2.531l0,0c-1.392,0-2.531,1.139-2.531,2.531v13.627C534.145,125.199,535.284,126.337,536.676,126.337
				z"/>
			<path style="fill:#263F5C;" d="M527.332,116.993L527.332,116.993c0,1.392,1.139,2.531,2.531,2.531h13.627
				c1.392,0,2.531-1.139,2.531-2.531l0,0c0-1.392-1.139-2.531-2.531-2.531h-13.627C528.47,114.462,527.332,115.601,527.332,116.993z
				"/>
		</g>
		<g>
			<path style="fill:#263F5C;" d="M363.149,244.909L363.149,244.909c1.392,0,2.531-1.139,2.531-2.531v-13.627
				c0-1.392-1.139-2.531-2.531-2.531l0,0c-1.392,0-2.531,1.139-2.531,2.531v13.627C360.618,243.77,361.757,244.909,363.149,244.909z
				"/>
			<path style="fill:#263F5C;" d="M353.805,235.565L353.805,235.565c0,1.392,1.139,2.531,2.531,2.531h13.627
				c1.392,0,2.531-1.139,2.531-2.531l0,0c0-1.392-1.139-2.531-2.531-2.531h-13.627C354.944,233.034,353.805,234.173,353.805,235.565
				z"/>
		</g>
		<g>
			<path style="fill:#263F5C;" d="M300.389,316.762L300.389,316.762c0.696,0,1.266-0.57,1.266-1.266v-6.813
				c0-0.696-0.569-1.265-1.266-1.265l0,0c-0.696,0-1.266,0.569-1.266,1.265v6.813C299.124,316.192,299.693,316.762,300.389,316.762z
				"/>
			<path style="fill:#263F5C;" d="M295.717,312.089L295.717,312.089c0,0.696,0.569,1.266,1.265,1.266h6.814
				c0.696,0,1.266-0.569,1.266-1.266l0,0c0-0.696-0.569-1.266-1.266-1.266h-6.814C296.286,310.824,295.717,311.393,295.717,312.089z
				"/>
		</g>
		<g>
			<path style="fill:#263F5C;" d="M645.082,217.087L645.082,217.087c0.696,0,1.266-0.569,1.266-1.266v-6.813
				c0-0.696-0.57-1.266-1.266-1.266l0,0c-0.696,0-1.266,0.57-1.266,1.266v6.813C643.817,216.518,644.386,217.087,645.082,217.087z"
				/>
			<path style="fill:#263F5C;" d="M640.41,212.415L640.41,212.415c0,0.696,0.57,1.265,1.266,1.265h6.813
				c0.696,0,1.266-0.569,1.266-1.265l0,0c0-0.696-0.57-1.266-1.266-1.266h-6.813C640.979,211.15,640.41,211.719,640.41,212.415z"/>
		</g>
		<g>
			<path style="fill:#263F5C;" d="M506.199,98.221L506.199,98.221c0.884,0,1.608-0.724,1.608-1.608v-8.659
				c0-0.884-0.724-1.608-1.608-1.608l0,0c-0.885,0-1.608,0.724-1.608,1.608v8.659C504.591,97.498,505.314,98.221,506.199,98.221z"/>
			<path style="fill:#263F5C;" d="M500.261,92.284L500.261,92.284c0,0.884,0.724,1.608,1.608,1.608h8.659
				c0.885,0,1.608-0.724,1.608-1.608l0,0c0-0.884-0.724-1.608-1.608-1.608h-8.659C500.985,90.675,500.261,91.399,500.261,92.284z"/>
		</g>
	</g>
	<g>
		<g>
			
				<rect x="204.784" y="81.717" transform="matrix(0.9965 0.0839 -0.0839 0.9965 22.8201 -16.4667)" style="fill:#0C143B;" width="5.109" height="363.149"/>
			
				<rect x="272.405" y="85.12" transform="matrix(0.9965 0.0839 -0.0839 0.9965 23.3444 -22.1281)" style="fill:#0C143B;" width="5.109" height="363.149"/>
			
				<rect x="217.253" y="114.058" transform="matrix(0.9965 0.0839 -0.0839 0.9965 10.6671 -20.7598)" style="fill:#0C143B;" width="70.222" height="4.99"/>
			
				<rect x="213.72" y="156.018" transform="matrix(0.9965 0.0839 -0.0839 0.9965 14.1747 -20.3156)" style="fill:#0C143B;" width="70.222" height="4.99"/>
			
				<rect x="210.188" y="197.978" transform="matrix(0.9965 0.0839 -0.0839 0.9965 17.6822 -19.8714)" style="fill:#0C143B;" width="70.222" height="4.99"/>
			
				<rect x="206.655" y="239.938" transform="matrix(0.9965 0.0839 -0.0839 0.9965 21.1898 -19.4271)" style="fill:#0C143B;" width="70.222" height="4.99"/>
			
				<rect x="203.123" y="281.898" transform="matrix(0.9965 0.0839 -0.0839 0.9965 24.6973 -18.9829)" style="fill:#0C143B;" width="70.222" height="4.99"/>
			
				<rect x="199.591" y="323.858" transform="matrix(0.9965 0.0839 -0.0839 0.9965 28.2049 -18.5386)" style="fill:#0C143B;" width="70.222" height="4.99"/>
			
				<rect x="196.058" y="365.818" transform="matrix(0.9965 0.0839 -0.0839 0.9965 31.7124 -18.0944)" style="fill:#0C143B;" width="70.222" height="4.99"/>
			
				<rect x="192.526" y="407.777" transform="matrix(0.9965 0.0839 -0.0839 0.9965 35.22 -17.6501)" style="fill:#0C143B;" width="70.222" height="4.99"/>
		</g>
		<g>
			<path style="fill:#979CF9;" d="M235.708,92.52c0,0,14.106-2.551,16.656,12.614c2.55,15.165-3.801,36.216,9.296,40.998
				c13.097,4.782,13.209,19.664-9.595,20.231c-22.804,0.567-19.713-4.11-19.713-4.11L235.708,92.52z"/>
			<path style="fill:#979CF9;" d="M238.085,92.359c0,0-20.651-2.39-23.201,12.775c-2.55,15.165,3.801,36.216-9.296,40.998
				c-13.097,4.782-13.209,19.664,9.595,20.231c22.804,0.567,19.713-4.11,19.713-4.11L238.085,92.359z"/>
			<path style="fill:#ECC4A1;" d="M252.321,153.277c7.421,1.634,19.014,4.054,28.798,5.519c0,0,1.303-24.666,3.473-33.478
				l3.751,1.147c0,0,7.718,25.775,2.996,41.226c-0.658,2.153-2.473,3.747-4.672,4.226c-5.092,1.111-15.665-0.094-37.145-5.135
				c-4.327-1.016-7.701-3.309-6.639-7.625l0,0C243.916,154.961,248.099,152.348,252.321,153.277z"/>
			<path style="fill:#ECC4A1;" d="M284.42,127.441c0,0-2.505-2.157-0.85-5.051c1.654-2.894,0.393-6.262,1.755-7.205
				c1.126-0.78,2.072,1.327,2.09,3.07c0.013,1.276-0.703,2.729-0.374,2.652c0.329-0.077,2.236-0.933,2.95-1.862
				c0.811-1.054,4.466-6.639,4.6-6.915c1.002-2.069,1.946-1.398,1.946-1.398c1.556,0.741-0.704,4.563-1.32,5.635
				c-0.929,1.617-2.668,4.184-2.668,4.184l0.202,0.199c0,0,7.888-6.166,8.301-6.481c0.701-0.536,1.269-0.223,1.439-0.025
				c0.26,0.302,0.402,0.93-0.325,1.813c-1.099,1.335-5.199,5.815-7.177,7.21c0,0,4.798-3.061,6.96-3.684
				c0.717-0.207,1.866-0.561,2.175,0.239c0.352,0.913-1.153,1.746-1.374,1.892c-1.509,0.994-5.17,3.153-6.952,3.821l0.017,0.357
				c0,0,5.115,0.851,6.59,0.977c0.142,0.012,0.852,0.052,0.936,0.672c0.131,0.976-0.837,1.021-1.035,1.04
				c-0.982,0.094-4.146,0.369-5.983,0.211c-0.644-0.055-1.291,0.082-1.837,0.429c-1.283,0.814-3.799,2.123-6.187,1.701
				C284.903,130.322,284.42,127.441,284.42,127.441z"/>
			<g>
				<path style="fill:#ECC4A1;" d="M202.032,339.457l-0.421,3.835c-4.249,6.626,8.321,19.614,8.321,19.614l12.515,1.187
					c-8.712-6.295-10.764-23.72-10.764-23.72L202.032,339.457z"/>
				<path style="fill:#B53E27;" d="M201.611,343.291c0,0-5.489,1.396-4.782,13.956c0.157,2.784,0.135,5.992,0.308,9.809l4.87,0.462
					l0.932-9.819c0,0,2.148,10.386,8.574,11.156c4.321,0.518,10.896,1.118,14.74,1.455c2.168,0.19,3.185-2.699,1.359-3.894
					c-1.045-0.684-2.549-1.416-4.688-2.168c-3.527-1.239-6.261-0.802-10.015-3.803C207.23,355.906,201.975,347.841,201.611,343.291z
					"/>
			</g>
			<g>
				<path style="fill:#ECC4A1;" d="M237.569,342.48l-0.421,3.835c-4.249,6.626,8.321,19.614,8.321,19.614l12.515,1.187
					c-8.712-6.295-10.764-23.72-10.764-23.72L237.569,342.48z"/>
				<path style="fill:#B53E27;" d="M237.148,346.315c0,0-5.489,1.396-4.782,13.956c0.157,2.784,0.135,5.992,0.308,9.809l4.87,0.462
					l0.932-9.819c0,0,2.148,10.386,8.574,11.156c4.321,0.518,10.896,1.118,14.74,1.455c2.168,0.19,3.185-2.699,1.359-3.894
					c-1.045-0.684-2.549-1.416-4.688-2.168c-3.527-1.239-6.261-0.802-10.015-3.803C242.767,358.929,237.512,350.864,237.148,346.315
					z"/>
			</g>
			<path style="fill:#ECC4A1;" d="M210.462,152.153c0,0-11.176,1.466-13.193,31.624c-2.017,30.159-14.058,61.81-14.058,61.81
				l5.369,4.84c0,0,21.527-39.359,23.078-76.77L210.462,152.153z"/>
			<g>
				<path style="fill:#DFB38C;" d="M221.261,116.757c2.053,2.91,2.547,7.728,0.137,9.39c-2.41,1.663-6.811-0.458-8.864-3.369
					c-2.053-2.91-1.764-6.618,0.646-8.281C215.59,112.836,219.208,113.847,221.261,116.757z"/>
			</g>
			<path style="fill:#E9A42A;" d="M256.32,220.537l-20.36-0.034l0.012-0.484l-28.62-0.137
				c-14.739,13.915-7.522,124.596-7.522,124.596l13.164,2.292c13.461-72.23,17.815-100.25,17.815-100.25l1.188,0.053v0l1.477,0.066
				l0.506,0.023c0,0,3.342,43.74,0.262,102.317l14.41,1.538C248.652,350.517,268.926,269.682,256.32,220.537z"/>
			<path style="fill:#BA6919;" d="M258.108,228.937c-0.504-2.882-1.093-5.691-1.788-8.4l-20.36-0.034l0.012-0.484l-28.62-0.137
				c-1.404,1.325-2.607,3.534-3.638,6.436C220.135,237.377,241.659,239.521,258.108,228.937z"/>
			<path style="fill:#ECC4A1;" d="M249.479,152.286c-14.736-4.958-10.299-20.025-10.299-20.025l-14.756-0.376
				c0,0,3.664,15.273-11.305,19.474c-0.933,0.262-1.813,0.525-2.657,0.793c11.487,11.962,30.866,9.538,41.577,1.243
				c0.008-0.066,0.018-0.131,0.026-0.197C251.244,152.894,250.384,152.591,249.479,152.286z"/>
			<g>
				<path style="fill:#D29B70;" d="M224.816,135.495c-0.041-2.145-0.392-3.609-0.392-3.609l6.869-0.651l0.003-0.128l0.529,0.078
					l0.532-0.051l-0.003,0.128l6.827,1c0,0-0.724,2.461-0.615,5.721C236.985,140.979,231.472,145.049,224.816,135.495z"/>
			</g>
			<path style="fill:#ECC4A1;" d="M249.711,107.754c0.464,6.209,0.642,19.563-5.337,25.237c-7.863,7.461-21.009,2.592-24.04-5.338
				c-2.616-6.844-2.289-19.251,2.794-27.281c2.634-4.161,8.019-7.098,14.531-6.602C247.321,94.508,249.565,105.798,249.711,107.754z
				"/>
			<g>
				<g>
					<path style="fill:#0C143B;" d="M237.633,109.81c0.044,1.756,0.088,3.511,0.132,5.266c0.033,1.305,0.066,2.61,0.098,3.915
						c0.019,0.761-0.077,1.632,0.06,2.382c0.008,0.044-0.018,0.132,0.004,0.172c-0.114-0.205,0.261-0.115-0.064-0.12
						c-0.124-0.002-0.271,0.045-0.393,0.065c-0.566,0.095-1.132,0.189-1.699,0.283c-0.2,0.033-0.115,0.337,0.084,0.304
						c0.757-0.126,1.514-0.253,2.27-0.379c0.066-0.011,0.117-0.088,0.116-0.152c-0.086-3.417-0.172-6.834-0.258-10.251
						c-0.012-0.495-0.025-0.991-0.037-1.486C237.943,109.607,237.628,109.607,237.633,109.81L237.633,109.81z"/>
				</g>
			</g>
			<g>
				<path style="fill:#D57F6D;" d="M229.001,122.934c-0.041,1.592-1.568,2.844-3.412,2.797c-1.844-0.047-3.306-1.375-3.265-2.967
					c0.04-1.592,1.568-2.844,3.412-2.797C227.58,120.014,229.042,121.343,229.001,122.934z"/>
			</g>
			<g>
				<path style="fill:#D57F6D;" d="M248.154,123.422c-0.04,1.592-1.568,2.844-3.412,2.797c-1.844-0.047-3.306-1.375-3.265-2.967
					c0.041-1.592,1.568-2.844,3.412-2.797C246.733,120.502,248.195,121.83,248.154,123.422z"/>
			</g>
			<path style="fill:#979CF9;" d="M226.776,111.787c0.107,0.644,1.34,0.356,2.877,0.106c1.538-0.251,2.799-0.368,2.691-1.012
				c-0.107-0.644-1.441-0.962-2.979-0.712C227.828,110.418,226.669,111.143,226.776,111.787z"/>
			<path style="fill:#979CF9;" d="M241.376,110.004c-0.143,0.637,1.109,0.824,2.631,1.159c1.521,0.335,2.736,0.691,2.879,0.054
				c0.143-0.637-0.975-1.424-2.496-1.759C242.869,109.122,241.519,109.367,241.376,110.004z"/>
			<g>
				<path style="fill:#0E1325;" d="M261.659,219.897c-2.392-7.108-4.682-12.376-5.687-14.763c-2.318-5.507,0.691-18.18,2.192-23.7
					c0.893-3.282,1.396-6.667,1.346-10.068c-0.193-13.115-7.446-18.167-7.446-18.167c-16.375,10.736-41.602-1.046-41.602-1.046
					c-6.714,23.67,5.589,29.534-5.42,54.602c-2.038,4.639-3.775,9.874-5.261,15.319
					C214.916,229.883,251.839,232.106,261.659,219.897z"/>
			</g>
			<path style="fill:#0C143B;" d="M229.404,117.449c-0.025,0.977,0.431,1.78,1.018,1.795c0.587,0.015,1.083-0.765,1.108-1.741
				c0.025-0.977-0.431-1.78-1.018-1.795C229.925,115.692,229.429,116.472,229.404,117.449z"/>
			<path style="fill:#0C143B;" d="M240.291,117.726c-0.025,0.977,0.431,1.78,1.018,1.795c0.587,0.015,1.083-0.765,1.108-1.741
				c0.025-0.977-0.431-1.78-1.018-1.795C240.812,115.97,240.316,116.749,240.291,117.726z"/>
			<path style="fill:#ECC4A1;" d="M191.828,241.884c0,0,3.783,0.452,4.062,4.285c0.279,3.833,3.652,6.244,2.955,8.023
				c-0.576,1.47-2.837,0.063-3.975-1.593c-0.833-1.212-1.082-3.064-1.348-2.778c-0.266,0.285-1.539,2.331-1.625,3.678
				c-0.098,1.53-0.002,9.225,0.047,9.575c0.372,2.624-0.962,2.589-0.962,2.589c-1.966,0.292-2.261-4.818-2.362-6.24
				c-0.152-2.144-0.139-5.719-0.139-5.719l-0.321-0.061c0,0-3.581,10.973-3.773,11.541c-0.326,0.964-1.07,1.03-1.361,0.95
				c-0.443-0.122-0.983-0.631-0.855-1.944c0.193-1.983,1.233-8.908,2.229-11.515c0,0-2.622,6.015-4.289,8.001
				c-0.553,0.659-1.425,1.737-2.235,1.17c-0.924-0.647-0.02-2.412,0.098-2.694c0.804-1.922,2.918-6.342,4.193-8.127l-0.246-0.331
				c0,0-5.441,2.476-6.933,3.304c-0.144,0.08-0.849,0.499-1.328-0.041c-0.753-0.849,0.144-1.515,0.321-1.66
				c0.88-0.722,3.73-3.02,5.588-4.051c0.652-0.362,1.182-0.909,1.482-1.592c0.704-1.604,2.269-4.475,4.825-5.607
				C189.513,239.438,191.828,241.884,191.828,241.884z"/>
			<g>
				<path style="fill:#6D2D25;" d="M239.684,124.493c0,0-3.973,1.913-7.852-0.2c0,0-0.603,3.966,3.44,4.35
					C239.937,129.085,239.684,124.493,239.684,124.493z"/>
				<g>
					<defs>
						<path id="SVGID_00000178194079068669623440000006963078626425949589_" d="M239.684,124.493c0,0-3.973,1.913-7.852-0.2
							c0,0-0.603,3.966,3.44,4.35C239.937,129.085,239.684,124.493,239.684,124.493z"/>
					</defs>
					<clipPath id="SVGID_00000127757961938613516190000009588239110608831104_">
						<use xlink:href="#SVGID_00000178194079068669623440000006963078626425949589_"  style="overflow:visible;"/>
					</clipPath>
					<path style="clip-path:url(#SVGID_00000127757961938613516190000009588239110608831104_);fill:#D57F6D;" d="M238.682,129.041
						c0,0-0.513-1.927-3.198-1.891c-2.685,0.036-3.792,1.859-3.792,1.859S235.15,132.113,238.682,129.041z"/>
					<path style="clip-path:url(#SVGID_00000127757961938613516190000009588239110608831104_);fill:#FFFFFF;" d="M232.461,124.309
						c0,0-0.207,1.6,3.348,1.682c3.556,0.082,3.144-1.738,3.144-1.738L232.461,124.309z"/>
				</g>
			</g>
			<path style="fill:#D29B70;" d="M236.378,130.19c-0.004,0.155-0.307,0.273-0.678,0.264c-0.37-0.009-0.667-0.143-0.663-0.298
				c0.004-0.155,0.307-0.273,0.678-0.264C236.085,129.902,236.382,130.035,236.378,130.19z"/>
			<path style="fill:#0E1325;" d="M199.961,166.86c0,0,0.197-12.97,11.205-15.994c0,0,10.53-2.787,12.659-8.858
				c0,0,2.635,2.832,15.61,0.932c0,0,1.245,3.61,7.072,7.082c2.817,1.679,5.945,2.763,9.173,3.342
				c2.398,0.43,5.423,0.951,6.652,1.07l0.903,15.347l-12.62,0.833l-40.152,1.684C210.462,172.299,203.922,170.476,199.961,166.86z"
				/>
			<path style="fill:#979CF9;" d="M216.646,112.646c0,0,1.271,10.327,2.549,10.691c1.278,0.364,8.01-23.943,8.01-23.943
				s5.069,0.921,4.058,7.937c0,0,6.288,1.701,9.477,0.071s0-9.921,0-9.921s4.173,3.472,1.945,10.063c0,0,7.693,3.118,7.906-0.85
				c0.213-3.968-4.535-19.417-24.307-11.551C226.284,95.142,214.024,96.701,216.646,112.646z"/>
		</g>
		<g>
			<path style="fill:#E8AC29;" d="M319.352,72.432c0-15.402-12.41-27.906-27.776-28.058c-15.11-0.149-27.797,11.953-28.324,27.054
				c-0.248,7.119,2.158,13.669,6.305,18.742c6.038,7.385,11.458,15.254,15.693,23.801l0.894,1.805h5.149h5.149l0.896-1.809
				c4.191-8.459,9.455-16.326,15.506-23.573C316.907,85.529,319.352,79.267,319.352,72.432z"/>
			<path style="fill:#0C143B;" d="M294.404,122.849h-6.222c-1.138,0-2.061-0.923-2.061-2.061l0,0c0-1.138,0.923-2.061,2.061-2.061
				h6.222c1.138,0,2.061,0.923,2.061,2.061l0,0C296.465,121.926,295.542,122.849,294.404,122.849z"/>
			<path style="fill:none;stroke:#FFFFFF;stroke-width:0.7583;stroke-miterlimit:10;" d="M292.947,113.795
				c0,0-0.36-30.051,7.748-33.72c7.948-3.596,8.192,12.779-7.328,14.447c-0.638,0.069-1.282,0.083-1.924,0.083h-0.299
				c-0.642,0-1.285-0.014-1.924-0.083c-15.52-1.668-15.276-18.043-7.328-14.447c8.108,3.669,7.748,33.72,7.748,33.72"/>
			<path style="fill:#0C143B;" d="M297.374,116.993h-12.162c-1.138,0-2.061-0.923-2.061-2.061l0,0c0-1.138,0.923-2.061,2.061-2.061
				h12.162c1.138,0,2.061,0.923,2.061,2.061l0,0C299.435,116.07,298.513,116.993,297.374,116.993z"/>
			<path style="fill:#F1CB6F;" d="M274.226,55.118c-4.119,4.66-4.792,10.793-1.504,13.7c3.288,2.907,9.293,1.486,13.412-3.174
				c4.119-4.66,4.792-10.793,1.504-13.7C284.349,49.037,278.345,50.458,274.226,55.118z"/>
		</g>
	</g>
</g>
</svg>
